<svg width="103" height="103" viewBox="0 0 103 103" fill="none" xmlns="http://www.w3.org/2000/svg">
<path d="M49.2561 28.3674C50.3099 28.3674 51.1673 27.5099 51.1673 26.4562C51.1673 25.4024 50.3099 24.5449 49.2561 24.5449C48.2037 24.5449 47.3462 25.4024 47.3462 26.4562C47.3462 27.5099 48.2037 28.3674 49.2561 28.3674ZM49.2561 25.3179C49.8845 25.3179 50.3957 25.8291 50.3957 26.4562C50.3957 27.0832 49.8845 27.5931 49.2561 27.5931C48.629 27.5931 48.1178 27.0832 48.1178 26.4562C48.1178 25.8291 48.629 25.3179 49.2561 25.3179Z" fill="url(#paint0_linear)"/>
<path d="M43.8032 31.0939C44.857 31.0939 45.7144 30.2364 45.7144 29.1826C45.7144 28.1288 44.857 27.2714 43.8032 27.2714C42.7508 27.2714 41.8933 28.1288 41.8933 29.1826C41.8933 30.2364 42.7508 31.0939 43.8032 31.0939ZM43.8032 28.0443C44.4316 28.0443 44.9429 28.5555 44.9429 29.1826C44.9429 29.8097 44.4316 30.3195 43.8032 30.3195C43.1761 30.3195 42.6649 29.8097 42.6649 29.1826C42.6649 28.5555 43.1761 28.0443 43.8032 28.0443Z" fill="url(#paint1_linear)"/>
<path d="M99.8604 65.3313C99.6519 65.2222 94.672 62.6702 89.1482 63.6709C86.9016 64.0785 84.9426 65.0095 83.3913 65.9815C83.7362 65.2454 84.0088 64.4315 84.1152 63.5618C84.5282 60.1646 82.2693 57.3796 82.1739 57.2623L81.8563 56.8765L81.4828 57.2078C81.3642 57.3141 78.6418 59.7734 78.1183 63.0165C77.2145 60.6295 75.9072 58.3802 74.0859 56.3435C74.5262 55.8786 74.777 55.3593 74.8125 54.7894C74.8616 53.9524 74.4553 53.0622 73.6033 52.1434C71.9538 50.3671 68.1027 49.7387 67.9405 49.7128C67.7987 49.6896 67.6501 49.7332 67.5424 49.83C67.4347 49.9268 67.3747 50.0672 67.3829 50.2131C67.3897 50.3712 67.5819 54.116 69.2369 55.8991C70.2579 56.9992 71.1822 57.3591 71.9552 57.3591C72.4977 57.3591 72.9585 57.1764 73.3334 56.9529C79.8878 64.2666 79.5592 74.454 77.8198 83.7171C77.2704 81.1106 75.5009 79.3984 73.8351 77.9929C73.4942 77.7053 73.1793 77.5199 72.8726 77.4244C72.7799 77.3958 72.6804 77.3958 72.5877 77.4244C72.4105 77.479 72.2305 77.573 72.0451 77.6889C72.2537 76.1676 72.3737 74.5208 72.3737 72.7009C72.3737 71.8339 72.3382 70.9778 72.2892 70.1271C72.2919 70.078 72.3014 70.0289 72.3014 69.9785C72.3014 66.2378 64.6946 63.8085 55.5992 62.8516C53.7943 62.0254 51.091 61.506 48.3154 61.3329C47.3694 61.2648 46.5828 61.2579 46.366 61.2579H46.3578C46.4451 61.0235 46.561 60.8053 46.7314 60.6309C47.2685 60.59 47.8097 60.4441 48.3318 60.1455C50.3316 58.9991 51.699 56.2426 51.8176 53.1236C51.9839 48.629 47.5248 43.3138 47.3353 43.0888C47.1744 42.9007 46.8977 42.8639 46.6946 43.0016C46.4914 43.1406 46.4246 43.4106 46.5405 43.6287C47.5957 45.6054 46.1602 48.0783 44.1712 51.5027L43.5223 52.6246C41.0385 56.9651 44.7452 60.1674 44.7833 60.1987C44.8092 60.2205 44.8378 60.2396 44.8678 60.256C45.105 60.3827 45.3491 60.4727 45.5972 60.5409C45.4758 60.7713 45.3886 61.0221 45.33 61.2825C45.2604 61.2852 45.1936 61.2879 45.12 61.2907C44.951 61.2961 44.7901 61.3097 44.6238 61.3179C44.617 61.3179 44.6102 61.3193 44.602 61.3193C41.4829 61.4788 38.8165 62.05 37.261 62.9129C28.8499 63.8712 21.8743 66.1328 21.3385 69.5573C21.2526 69.6636 21.1927 69.7931 21.1845 69.9376C21.13 70.8496 21.0945 71.7684 21.0945 72.6995C21.0945 74.4581 21.1995 76.0667 21.3903 77.5499C11.6296 76.4388 3.94784 66.2337 3.94784 53.782C3.94784 41.4434 11.4919 31.3106 21.1259 30.0455C21.4558 39.8812 33.9348 40.7305 46.7368 40.7305C59.7107 40.7305 72.3778 39.8757 72.3778 29.6611C72.3778 29.2439 72.341 28.8322 72.296 28.4232C72.2837 28.4587 72.2578 28.4846 72.2442 28.52C72.2442 28.5159 72.2455 28.5132 72.2455 28.5091C72.2455 24.0868 59.0359 21.7012 46.6046 21.7012C34.8986 21.7012 22.5177 23.8646 21.3426 27.8834C21.2608 27.9761 21.2036 28.0893 21.1886 28.2188C21.1709 28.3619 21.1736 28.5091 21.16 28.6536C10.7558 29.8874 2.58325 40.6596 2.58325 53.7793C2.58325 67.0857 10.9889 77.9711 21.6044 78.9458C23.0671 87.162 27.5753 90.979 33.3813 92.7239C33.0159 93.1561 32.8142 93.6155 32.8142 94.1063C32.8142 97.2376 40.3133 98.35 46.7355 98.35C53.1563 98.35 60.6554 97.239 60.6554 94.1063C60.6554 93.6128 60.4495 93.1506 60.0801 92.7158C60.5081 92.5863 60.9253 92.4377 61.3383 92.2864C61.8809 92.8616 62.538 93.3647 63.3832 93.7477C62.2299 94.9705 61.5946 96.4933 61.397 98.4754C61.3288 99.1488 61.9954 100.047 62.5693 100.283C64.6101 101.112 67.2343 101.819 69.6827 100.102C70.9164 101.72 71.7098 102.701 72.5863 102.977C72.634 102.992 72.6818 103 72.7308 103C72.7799 103 72.8276 102.993 72.8753 102.977C73.7505 102.701 74.5439 101.72 75.7777 100.102C78.2246 101.818 80.8502 101.115 82.891 100.283C83.4663 100.049 84.1329 99.1502 84.0647 98.4754C83.867 96.4946 83.2318 94.9719 82.0785 93.7477C85.0653 92.3927 85.8833 89.6662 86.5035 86.7489C86.7421 85.6256 86.3304 84.9304 85.2098 84.5596C83.1064 83.8643 81.022 83.3 78.7863 83.7798C79.6465 79.1421 80.1468 74.3013 79.6629 69.684L79.7883 69.7495C79.9641 69.8408 83.4812 71.6416 87.8572 71.6416C88.712 71.6416 89.5981 71.5735 90.5005 71.4099C91.3116 71.2627 92.0819 71.0418 92.8139 70.7801C92.8453 70.791 92.8766 70.8101 92.9093 70.8101C93.0061 70.8101 93.1043 70.7637 93.1643 70.6778C93.1697 70.6697 93.1656 70.6588 93.1697 70.6506C97.2117 69.1006 99.8632 66.2296 99.9954 66.0851L100.417 65.6216L99.8604 65.3313ZM73.1807 55.8868C72.1869 56.7279 71.1277 56.5166 69.9444 55.2407C68.8934 54.1064 68.5226 51.8721 68.3999 50.787C69.5082 51.0283 71.8284 51.6513 72.8944 52.8005C73.5597 53.5189 73.8814 54.1678 73.846 54.7322C73.8201 55.1452 73.5965 55.5324 73.1807 55.8868ZM46.6019 23.0658C61.6423 23.0658 70.8796 26.2366 70.8796 28.5105C70.8796 30.7844 61.6437 33.9552 46.6019 33.9552C31.7236 33.9552 22.5872 30.7844 22.5872 28.5105C22.5872 26.2366 31.7236 23.0658 46.6019 23.0658ZM46.6032 35.3185C56.6557 35.3185 67.2166 33.7576 70.8891 30.8212C69.9935 37.8745 60.9526 39.3686 46.7341 39.3686C32.5143 39.3686 23.4679 37.8759 22.575 30.8239C26.2148 33.7576 36.6585 35.3185 46.6032 35.3185ZM72.2483 78.7291C72.4268 78.5805 72.585 78.4728 72.7295 78.4046C72.8726 78.4728 73.0335 78.5805 73.2121 78.7318C75.3346 80.5231 76.7933 82.2312 77.01 84.7368C77.0209 84.8649 77.0904 84.9726 77.1872 85.0544L74.5453 87.8013C74.0055 88.363 73.2652 89.1318 73.2761 90.0752C73.2802 90.3165 73.3347 90.5114 73.4424 90.675C73.5692 90.8645 73.7505 90.9913 73.925 91.1044C73.9796 91.1399 74.0409 91.1671 74.0954 91.2012C74.105 91.2176 74.0995 91.238 74.1118 91.253C75.6032 93.0525 76.0121 94.9746 75.2678 96.5928C74.4553 96.0366 73.8132 95.4231 73.4356 94.8397C73.4193 94.8151 73.3879 94.8124 73.3675 94.7933C73.3484 94.7729 73.3457 94.7429 73.3211 94.7265C73.2993 94.7129 73.2734 94.7224 73.2502 94.7129C73.2025 94.6925 73.1616 94.687 73.1098 94.687C73.058 94.687 73.0171 94.6925 72.9694 94.7129C72.9462 94.7224 72.9203 94.7115 72.8985 94.7265C72.874 94.7429 72.8726 94.7729 72.8522 94.7933C72.8317 94.8138 72.8004 94.8151 72.784 94.8397C72.4078 95.4218 71.7643 96.0352 70.9518 96.5928C70.2075 94.976 70.6178 93.0538 72.1092 91.253C72.1392 91.2176 72.1324 91.1712 72.1474 91.1303C72.3164 91.0281 72.4841 90.9149 72.6041 90.7473C72.7267 90.5782 72.7881 90.3751 72.7908 90.1284C72.8045 89.1659 71.9879 88.3902 71.3922 87.8218L68.3781 84.9508C68.4176 84.8868 68.4435 84.8131 68.4503 84.7354C68.6671 82.2298 70.1257 80.5217 72.2483 78.7291ZM44.3089 58.0925C43.6546 56.9597 43.1597 55.2052 44.3607 53.1045L45.0069 51.988C46.4764 49.4578 47.7252 47.3067 47.8519 45.3927C49.1416 47.2726 50.9506 50.408 50.851 53.0895C50.7611 55.4765 49.8409 57.6713 48.494 58.845C48.858 58.2752 49.1279 57.5813 49.252 56.8206C49.631 54.5113 47.6774 51.4168 47.5943 51.2859C47.5125 51.1605 47.353 51.1142 47.2194 51.1823C47.0872 51.2491 47.0258 51.4045 47.0776 51.5436C47.4852 52.6219 46.5937 53.7711 45.3586 55.362L44.9524 55.8868C44.3512 56.6707 44.2298 57.4382 44.3089 58.0925ZM45.4636 59.4598C45.0546 59.0754 44.2517 57.7558 45.4145 56.2399L45.818 55.7178C46.7027 54.5768 47.4621 53.598 47.6897 52.6546C48.2241 53.7247 48.8975 55.407 48.6808 56.7252C48.4545 58.1007 47.6938 59.2731 46.7886 59.6412C46.7477 59.6575 46.6987 59.6698 46.6523 59.6834C46.2842 59.712 45.8848 59.6548 45.4636 59.4598ZM41.4952 62.6021C42.639 62.4099 43.9081 62.2831 45.2618 62.2449C45.2809 62.5012 45.3204 62.7602 45.4009 63.0083C45.4717 63.2251 45.6572 63.3573 45.8657 63.3573C45.9175 63.3573 45.9707 63.3491 46.0239 63.3314C46.2842 63.2469 46.4137 62.9824 46.3265 62.7152C46.2761 62.5571 46.2529 62.3976 46.2365 62.2395C46.4246 62.2395 46.6087 62.2326 46.7982 62.2367C48.5349 62.2654 50.0754 62.4208 51.4045 62.6498C51.6812 62.7507 51.8585 62.8488 51.928 62.9347C51.6513 63.2755 49.6623 63.8385 46.3688 63.8385C42.9689 63.8385 40.9581 63.2387 40.7891 62.9674C40.8422 62.8625 41.0958 62.7316 41.4952 62.6021ZM36.6776 66.4559C38.5043 67.8846 42.6949 68.6957 46.7082 68.7639C46.9072 68.7666 47.1049 68.768 47.3039 68.768C48.3345 68.768 49.3474 68.7216 50.3221 68.6303C50.5866 68.6057 50.7829 68.3699 50.757 68.1041C50.7324 67.8382 50.5211 67.631 50.2308 67.6692C49.1061 67.7742 47.9337 67.8178 46.7246 67.7973C40.4892 67.6924 36.6844 66.0074 36.6994 64.846C36.7021 64.6497 36.8153 64.4424 37.0347 64.2284C37.5855 63.694 38.657 63.2442 40.0284 62.902C40.0284 62.9129 40.0216 62.9224 40.0216 62.9347C40.0216 64.5638 45.7185 64.6115 46.3674 64.6115C47.0163 64.6115 52.7146 64.5638 52.7146 62.9347C52.7146 62.9265 52.7091 62.9183 52.7091 62.9102C55.347 63.5318 56.8315 64.4629 56.822 65.1895C56.8165 65.653 56.199 66.1724 55.1302 66.6141C54.8821 66.7163 54.7649 66.9985 54.8685 67.2452C54.9694 67.492 55.2543 67.6106 55.4983 67.507C56.0586 67.2752 56.4744 67.0326 56.8015 66.7899L56.7688 69.2042C56.7661 69.455 56.627 69.7154 56.3558 69.9771C55.0034 71.2899 51.0105 72.1651 46.6659 72.0806C40.7359 71.9811 36.6258 70.303 36.6449 68.8607L36.6776 66.4559ZM35.8215 64.467C35.8037 64.5324 35.7819 64.5978 35.7738 64.6646L35.7533 64.6115L35.7506 64.7614C35.7492 64.786 35.7329 64.8091 35.7329 64.8337C35.7329 64.8705 35.7451 64.9046 35.7465 64.9414L35.6756 68.8484C35.6402 71.4549 41.3016 72.9585 46.6468 73.0485C46.8363 73.0512 47.0217 73.0526 47.2099 73.0526C51.7017 73.0526 55.5174 72.1338 57.0265 70.671C57.4872 70.2239 57.7244 69.7345 57.7326 69.2178L57.7871 65.2031C57.7912 64.9427 57.7163 64.6974 57.5977 64.4602C65.7879 65.5835 70.9382 67.8655 70.9382 69.9799C70.9382 72.9258 60.9676 76.2085 46.6591 76.2085C32.5075 76.2085 22.6459 72.9258 22.6459 69.9799C22.6472 67.8682 27.7375 65.5916 35.8215 64.467ZM22.4564 72.7009C22.4564 72.5945 22.4591 72.4896 22.4591 72.3846C25.9163 75.7681 36.5412 77.5717 46.6605 77.5717C56.7675 77.5717 67.3911 75.8118 71.0091 72.5032C71.0105 72.5686 71.0105 72.6341 71.0105 72.7009C71.0105 73.1875 70.9955 73.6524 70.9805 74.1145C69.5014 77.8048 58.9473 80.7739 46.6019 80.7739C34.3792 80.7739 23.93 77.8007 22.4796 74.1064C22.4646 73.6483 22.4564 73.1821 22.4564 72.7009ZM46.7341 96.9895C38.5397 96.9895 34.176 95.3168 34.176 94.109C34.176 93.8241 34.4569 93.4819 34.9395 93.1452C38.582 93.9918 42.6417 94.1581 46.7341 94.1581C50.8238 94.1581 54.8807 93.9877 58.5206 93.1411C59.0072 93.4792 59.2908 93.8227 59.2908 94.109C59.2908 95.3168 54.9271 96.9895 46.7341 96.9895ZM46.7341 92.7948C32.2989 92.7948 23.5701 89.8952 22.5559 75.6332C25.5959 79.0889 35.069 81.5468 46.6019 81.5468C58.252 81.5468 67.8219 79.0903 70.8973 75.6359C70.8073 76.8464 70.6628 77.9779 70.4638 79.0303C69.1333 80.3036 67.9296 81.859 67.5683 84.0238C64.985 83.1486 62.6321 83.7744 60.2519 84.5609C59.1313 84.9317 58.7196 85.627 58.9582 86.7503C59.2921 88.3235 59.697 89.8325 60.4563 91.1099C56.7511 92.375 52.1502 92.7948 46.7341 92.7948ZM59.9015 86.5499C59.7638 85.9078 59.892 85.6979 60.5545 85.4784C62.7711 84.7463 64.9577 84.1779 67.2779 84.9645C67.2807 84.9672 67.2793 84.9699 67.282 84.9726L70.8605 88.3821C71.4753 88.9683 72.0274 89.5422 72.0206 90.1188C72.0192 90.2279 71.9961 90.2701 71.9797 90.2933C71.9265 90.3683 71.7793 90.4555 71.6907 90.5073C69.5286 91.7874 66.9426 92.6558 64.2107 93.0157C64.2052 93.0157 64.2038 93.0225 64.1984 93.0225C61.2852 91.9156 60.5163 89.4399 59.9015 86.5499ZM83.1036 98.5736C83.12 98.7453 82.7901 99.2824 82.5256 99.3901C79.6588 100.557 77.7053 100.458 75.9917 99.0534C75.9058 98.9825 75.7954 98.943 75.685 98.943C75.6659 98.943 75.6482 98.9444 75.6291 98.9457C75.4982 98.9607 75.3796 99.0289 75.3005 99.1338C74.1881 100.597 73.3607 101.684 72.7295 101.998C72.0969 101.684 71.2708 100.598 70.1571 99.1338C70.0766 99.0289 69.958 98.9621 69.8285 98.9457C69.699 98.9321 69.5668 98.9689 69.4659 99.0521C67.7537 100.453 65.8016 100.557 62.932 99.3888C62.6689 99.2811 62.339 98.744 62.3553 98.5722C62.5557 96.5492 63.2619 95.0783 64.5747 93.94C64.6469 93.8773 64.6905 93.7954 64.7164 93.7082C66.8662 93.3838 68.9138 92.7553 70.7487 91.8651C69.6459 93.7355 69.5218 95.7149 70.4774 97.3426C70.5292 97.4325 70.6178 97.498 70.7187 97.5225C70.7487 97.5293 70.7801 97.5334 70.8101 97.5334C70.8823 97.5334 70.9532 97.513 71.0159 97.4734C71.8856 96.9268 72.6027 96.3038 73.1098 95.6835C73.6169 96.3038 74.334 96.9254 75.2037 97.4734C75.2664 97.513 75.3387 97.5334 75.4096 97.5334C75.4396 97.5334 75.4709 97.5293 75.5009 97.5225C75.6018 97.498 75.6904 97.4325 75.7422 97.3426C76.6706 95.7598 76.5765 93.8486 75.5609 92.026C77.1504 92.8085 78.9076 93.3524 80.7357 93.6414C80.7521 93.7546 80.793 93.8623 80.8816 93.94C82.1971 95.081 82.9019 96.5533 83.1036 98.5736ZM84.9058 85.4784C85.567 85.6965 85.6951 85.9064 85.5588 86.5499C84.944 89.4386 84.1765 91.9142 81.266 93.0239C81.2169 92.9871 81.1733 92.9393 81.1079 92.9298C78.6391 92.574 76.3025 91.7179 74.3449 90.4555C74.2617 90.401 74.135 90.3192 74.0886 90.2511C74.0641 90.2143 74.0518 90.1515 74.0491 90.0643C74.0423 89.4876 74.5426 88.9192 75.1015 88.3371L78.3473 84.9617C78.3637 84.944 78.3596 84.9195 78.3719 84.899C80.6212 84.2051 82.7492 84.7654 84.9058 85.4784ZM89.32 64.6224C93.017 63.9517 96.5314 65.0164 98.2723 65.6952L81.5482 68.7489C81.7131 68.5607 81.8863 68.3481 82.073 68.1082C83.6544 66.8458 86.2268 65.184 89.32 64.6224ZM79.5892 69.0665C79.5852 69.0365 79.5797 69.0065 79.5756 68.9765C79.5892 68.997 79.6015 69.0188 79.6151 69.0379L79.5892 69.0665ZM80.3172 68.3358C79.7269 67.3979 78.7631 65.5058 79.0208 63.3927C79.303 61.0725 80.9715 59.104 81.7363 58.3093C82.3048 59.164 83.4295 61.1857 83.1554 63.4459C82.9632 65.0123 82.1439 66.4096 81.3941 67.402C80.9566 67.7551 80.5967 68.0741 80.3172 68.3358ZM81.4105 69.4019L84.8418 68.7748C84.854 68.787 84.854 68.8061 84.869 68.817L87.5273 70.6601C84.9522 70.5974 82.7069 69.9049 81.4105 69.4019ZM90.326 70.4597C89.7412 70.5661 89.1632 70.6192 88.5934 70.6465L85.6733 68.6221L88.926 68.0277C88.9464 68.0877 88.9723 68.1491 89.0296 68.1872L91.7901 70.1012C91.3171 70.2471 90.8291 70.3684 90.326 70.4597ZM92.5072 69.849L89.6839 67.8914L92.6708 67.3461L94.7961 68.8198C94.0967 69.2028 93.3279 69.5518 92.5072 69.849ZM95.3904 68.479L93.5296 67.1893L98.3677 66.306C97.697 66.9017 96.6759 67.7101 95.3904 68.479Z" fill="url(#paint2_linear)"/>
<path d="M44.7139 2.44427C46.6974 3.75024 47.8725 5.51016 47.9407 7.27418C48.0006 8.86779 47.1786 10.3701 45.5632 11.6188C42.5396 13.954 41.9452 16.6532 43.7937 19.6387C43.8633 19.7491 43.9491 19.8581 44.0391 19.9645L44.9975 21.2023L45.0043 19.7954C45.0152 17.6279 46.7833 15.8312 50.4095 14.303C51.1347 13.9976 51.785 13.6418 52.4775 13.2642C54.1352 12.359 55.0622 11.1853 55.2326 9.77434C55.7329 5.61513 51.2969 2.18389 43.3657 0.59573L40.3911 0L43.656 1.83218C44.0432 2.0462 44.3976 2.23706 44.7139 2.44427ZM54.2742 9.66119C54.1406 10.7586 53.4018 11.661 51.9499 12.4531C51.3433 12.7843 50.7148 13.1279 50.0346 13.4142C46.7356 14.8046 44.823 16.4582 44.2354 18.4417C43.1353 16.1774 43.7569 14.2375 46.1548 12.3849C48.0279 10.9372 48.9794 9.15816 48.9072 7.2401C48.839 5.44882 47.8398 3.6848 46.1262 2.28477C49.7906 3.38762 54.7568 5.64103 54.2742 9.66119Z" fill="url(#paint3_linear)"/>
<defs>
<linearGradient id="paint0_linear" x1="49.2568" y1="24.5449" x2="49.2568" y2="28.3674" gradientUnits="userSpaceOnUse">
<stop stop-color="#8FD400"/>
<stop offset="0.536458" stop-color="#67B437"/>
<stop offset="1" stop-color="#52B039"/>
</linearGradient>
<linearGradient id="paint1_linear" x1="43.8039" y1="27.2714" x2="43.8039" y2="31.0939" gradientUnits="userSpaceOnUse">
<stop stop-color="#8FD400"/>
<stop offset="0.536458" stop-color="#67B437"/>
<stop offset="1" stop-color="#52B039"/>
</linearGradient>
<linearGradient id="paint2_linear" x1="51.4999" y1="21.7012" x2="51.4999" y2="103" gradientUnits="userSpaceOnUse">
<stop stop-color="#8FD400"/>
<stop offset="0.536458" stop-color="#67B437"/>
<stop offset="1" stop-color="#52B039"/>
</linearGradient>
<linearGradient id="paint3_linear" x1="47.8309" y1="0" x2="47.8309" y2="21.2023" gradientUnits="userSpaceOnUse">
<stop stop-color="#8FD400"/>
<stop offset="0.536458" stop-color="#67B437"/>
<stop offset="1" stop-color="#52B039"/>
</linearGradient>
</defs>
</svg>
