<svg width="104" height="62" viewBox="0 0 104 62" fill="none" xmlns="http://www.w3.org/2000/svg">
<path d="M101.905 36.3092C101.894 36.2674 101.878 36.2255 101.869 36.1836C101.766 36.1852 101.668 36.1917 101.567 36.1933C101.304 36.1176 101.034 36.0645 100.75 36.0645H98.7357V14.6661C98.7357 6.6932 93.9127 0.205078 87.985 0.205078H16.0166C10.0889 0.205078 5.26586 6.69159 5.26586 14.6661V36.0629H3.25131C1.45898 36.0629 0 37.67 0 39.6459V54.8155C0 56.7914 1.45737 58.3985 3.25131 58.3985H5.22883C5.59277 60.3422 6.94385 61.7947 8.56065 61.7947H13.6236C15.2404 61.7947 16.5899 60.3422 16.9554 58.3985H87.0446C87.4101 60.3422 88.7596 61.7947 90.3764 61.7947H95.4393C97.0561 61.7947 98.4056 60.3422 98.7696 58.3985H100.749C102.541 58.3985 104 56.7914 104 54.8155V39.6459C103.998 38.1209 103.126 36.8246 101.905 36.3092ZM100.749 37.5573C101.391 37.5573 101.95 37.976 102.256 38.5911C102.224 38.5815 102.198 38.5702 102.164 38.5605C101.19 38.29 100.001 38.2465 98.966 38.2256C94.7823 38.1434 90.7484 38.2852 86.985 38.6459C86.423 38.699 85.8642 38.7586 85.3038 38.8166C83.2087 39.0372 81.0412 39.2707 78.6739 39.2176C75.8558 39.1596 72.3791 38.5702 71.0183 37.5573H78.8704C79.2827 37.583 79.6933 37.5959 80.0991 37.5959C80.4679 37.5959 80.827 37.5734 81.1909 37.5573H100.749ZM8.57353 36.0629C8.7555 31.6392 11.6171 28.1093 15.1212 28.1093H88.8804C92.3845 28.1093 95.2461 31.6392 95.4281 36.0629H8.57353ZM43.5199 43.5784C43.4168 44.1694 43.2767 44.7829 42.8 45.2258C42.209 45.7733 41.4119 45.8055 40.8563 45.7443C39.7049 45.6091 38.502 44.9214 37.9352 44.0728C37.452 43.3513 37.1912 42.5284 36.9383 41.7329C36.6791 40.9197 36.4118 40.0775 35.9077 39.319C35.4262 38.5943 34.7692 38.0259 34.0252 37.5573H43.6761C43.9031 39.5606 43.8693 41.5767 43.5199 43.5784ZM21.9508 27.2558V12.0331C21.9508 11.6112 22.1166 11.2247 22.4065 10.9751C22.5949 10.8125 22.8187 10.7271 23.049 10.7271C23.0941 10.7271 23.1408 10.7304 23.1859 10.7368C25.7786 11.1233 30.782 11.7707 35.1525 11.7707C39.523 11.7707 44.5263 11.1233 47.119 10.7368C47.3944 10.6982 47.673 10.7787 47.8984 10.9751C48.1883 11.2247 48.3542 11.6096 48.3542 12.0331V27.2558H48.3525H21.9508ZM55.6475 27.2558V11.4212C55.6475 11.17 55.7489 10.9349 55.918 10.7899C55.9953 10.7239 56.1145 10.6515 56.2723 10.6515C56.298 10.6515 56.3254 10.6531 56.3528 10.6579C58.5252 10.9929 64.0922 11.7707 68.8508 11.7707C73.6078 11.7707 79.1748 10.9912 81.3471 10.6579C81.5468 10.6257 81.6917 10.7126 81.7819 10.7899C81.951 10.9349 82.0525 11.1716 82.0525 11.4212V27.2558H82.0508H55.6475ZM16.0166 1.69949H87.9818C93.0866 1.69949 97.2381 7.51609 97.2381 14.6661V36.0629H96.28C96.0932 31.169 92.8499 27.2558 88.8788 27.2558H82.9043V11.4212C82.9043 10.9172 82.6966 10.4502 82.3359 10.141C82.0154 9.86882 81.6161 9.75449 81.2167 9.81246C79.0636 10.1442 73.5466 10.9156 68.8492 10.9156C64.1501 10.9156 58.6347 10.1442 56.4816 9.81246C56.0823 9.74966 55.6813 9.86721 55.3624 10.141C55.0017 10.4502 54.794 10.9172 54.794 11.4212V27.2558H49.2076V12.0331C49.2076 11.3632 48.9339 10.7416 48.4556 10.3294C48.0369 9.96866 47.52 9.81568 46.9934 9.89298C44.4233 10.2746 39.4682 10.9156 35.1525 10.9156C30.8367 10.9156 25.88 10.2746 23.3115 9.89298C22.7865 9.81729 22.268 9.96866 21.8493 10.3294C21.371 10.7416 21.0973 11.3632 21.0973 12.0331V27.2558H15.1212C11.1501 27.2558 7.90685 31.169 7.72005 36.0629H6.76188V14.6661H6.76027C6.76027 7.51609 10.9118 1.69949 16.0166 1.69949ZM3.25131 37.5589H13.0286C12.7874 37.6277 12.5475 37.6962 12.3063 37.7682C10.9005 38.1821 9.44635 38.6088 7.95355 38.7956C5.76346 39.0678 3.76018 38.7216 2.44935 37.8471C2.43808 37.8391 2.42842 37.8294 2.41714 37.8214C2.66675 37.6587 2.94856 37.5589 3.25131 37.5589ZM13.6236 60.3003H8.56065C7.74903 60.3003 7.03887 59.4968 6.75383 58.3985H15.4304C15.147 59.4968 14.4352 60.3003 13.6236 60.3003ZM44.4168 56.9041H41.8451C42.4667 56.5305 43.098 56.1714 43.755 55.8541C44.0175 55.7301 44.2059 55.6979 44.3138 55.7623C44.3798 55.801 44.4088 55.8767 44.4217 56.0377C44.4426 56.326 44.4233 56.6158 44.4168 56.9041ZM50.066 56.9025H44.7566C44.7631 56.6046 44.784 56.3083 44.7598 56.012C44.7518 55.8944 44.7309 55.6142 44.4877 55.4693C44.1656 55.2776 43.7453 55.4805 43.6068 55.5466C42.7694 55.9491 41.9755 56.4178 41.1977 56.9025H33.4052C36.3876 55.392 39.1848 53.6399 41.7082 51.6366C43.1785 50.4707 44.8999 49.2662 46.6842 49.6977C47.6955 49.9425 48.5168 50.7042 49.1287 51.9587C49.8953 53.532 50.1835 55.2213 50.066 56.9025ZM50.4025 56.9073C50.5201 55.173 50.2222 53.4338 49.4331 51.8138C48.7745 50.4643 47.8759 49.6414 46.7631 49.3708C44.8243 48.9006 43.0271 50.1583 41.4956 51.3741C38.8128 53.503 35.8159 55.342 32.6145 56.9073H6.61856V56.8703C6.52516 56.896 6.42532 56.8912 6.32709 56.9073H5.52191C5.38825 56.8864 5.25137 56.8832 5.12254 56.8413V56.9073H3.25131C2.28348 56.9041 1.49602 55.9685 1.49602 54.8155V49.6881C7.01954 49.701 12.4448 49.5609 17.7043 49.2195L17.846 49.2098C19.7848 49.0842 21.7881 48.9505 23.8574 49.263C25.6868 49.5367 27.1055 50.2388 27.2343 50.6978C27.2504 50.7574 27.2537 50.8363 27.1297 50.9409C26.8334 51.1873 26.1119 51.3371 25.4565 51.4579C19.1761 52.6205 11.3498 52.9829 3.41395 52.4788C3.3125 52.4708 3.23843 52.5449 3.23198 52.6383C3.22554 52.7317 3.29801 52.8138 3.39141 52.8202C5.73287 52.9684 8.06305 53.0425 10.3498 53.0425C15.8378 53.0425 21.0651 52.6189 25.5161 51.7944C26.244 51.6592 26.9863 51.503 27.3455 51.2034C27.5451 51.0376 27.6208 50.825 27.5596 50.6076C27.3519 49.8668 25.5386 49.1712 23.9041 48.9264C21.801 48.6124 19.7752 48.7444 17.8202 48.8716L17.6785 48.8797C12.4255 49.2211 7.00827 49.3596 1.49119 49.3483V47.6188C1.90505 47.6574 2.32374 47.7041 2.71828 47.7202C6.89232 47.8877 10.9263 47.8297 14.7074 47.5447C15.271 47.5028 15.833 47.4545 16.3934 47.4078C18.4933 47.2307 20.6609 47.0455 23.0329 47.1421C25.9171 47.2597 29.4921 47.9457 30.7433 49.0311C31.2135 49.4401 31.2522 49.8411 31.2329 50.1438C31.1105 52.1439 28.0041 53.817 23.1247 54.5095C18.1825 55.2116 11.5463 54.8734 5.80855 53.6238C5.71837 53.6029 5.62658 53.6624 5.60565 53.7542C5.58632 53.846 5.6443 53.9378 5.73609 53.9571C9.51881 54.78 13.6896 55.21 17.5191 55.21C19.5336 55.21 21.4548 55.0908 23.173 54.8461C28.2215 54.1294 31.4406 52.3355 31.5742 50.1631C31.5952 49.8121 31.5565 49.2839 30.9671 48.7718C29.6563 47.6333 25.9911 46.9183 23.0474 46.7991C20.6625 46.7025 18.4772 46.8877 16.366 47.0664C15.8056 47.1147 15.2468 47.1614 14.6832 47.2033C10.9166 47.4867 6.89554 47.5463 2.73277 47.3788C2.31569 47.3627 1.90505 47.3209 1.4928 47.2838V42.8763C2.11279 42.8457 2.73438 42.8119 3.34793 42.778L21.1359 41.7619C23.5724 41.6234 26.3325 41.464 28.8334 42.0486C31.5388 42.6798 33.6097 44.2354 34.1122 46.01C34.1331 46.0857 34.2023 46.134 34.2764 46.134C34.2925 46.134 34.307 46.1324 34.3231 46.1276C34.4149 46.1018 34.4664 46.0084 34.4407 45.9166C33.7917 43.6203 31.1588 42.2402 28.9107 41.7152C26.3599 41.1194 23.5724 41.2804 21.1166 41.4205L3.32861 42.4367C2.71989 42.4721 2.10635 42.5027 1.49119 42.5349V39.6475C1.49119 38.9953 1.74885 38.4204 2.14177 38.0372C2.18042 38.0678 2.21102 38.1032 2.2545 38.1306C4.14184 39.3915 6.65882 39.3013 7.99059 39.1338C9.51076 38.9454 10.9778 38.5138 12.3965 38.0951C12.8233 37.9695 13.25 37.8439 13.6784 37.7248C13.9038 37.6619 14.1325 37.6136 14.3595 37.5573H33.3617C34.27 38.0436 35.0623 38.6733 35.6162 39.5074C36.0929 40.2272 36.3522 41.0437 36.605 41.836C36.8659 42.6541 37.1332 43.5011 37.6437 44.2628C38.2637 45.1904 39.5664 45.9392 40.8096 46.0841C40.9626 46.1018 41.1124 46.1099 41.2573 46.1099C41.9691 46.1099 42.5746 45.8941 43.0271 45.4754C43.5827 44.9601 43.7437 44.2564 43.8516 43.638C44.2043 41.617 44.2429 39.5815 44.0175 37.5589H49.0047C48.1529 38.7199 47.5345 39.9905 47.1995 41.3223C47.177 41.4141 47.2317 41.5075 47.3235 41.53C47.338 41.5332 47.3509 41.5349 47.3654 41.5349C47.4411 41.5349 47.5119 41.4833 47.5313 41.406C47.8759 40.0372 48.5393 38.7393 49.446 37.5589H53.6136C51.8422 39.2546 51.7246 41.712 51.8889 44.1356C52.0725 46.8394 52.3543 49.5721 52.7263 52.2582C52.9437 53.8251 53.2432 55.3904 53.6683 56.9073H50.4025ZM95.4393 60.3003H90.3764C89.5648 60.3003 88.8643 59.4951 88.5808 58.3985H97.2478C96.9644 59.4968 96.2526 60.3003 95.4393 60.3003ZM100.749 56.9041H99.4202C100.169 56.3066 101.246 55.9073 102.246 55.8896C101.939 56.4951 101.385 56.9041 100.749 56.9041ZM102.506 42.9198C101.159 42.9874 99.8179 43.0776 98.491 43.179L80.7384 44.5575C78.1876 44.7572 75.5531 44.9617 73.0329 44.4287C70.3065 43.8522 68.1857 42.34 67.6285 40.5751C67.6011 40.4849 67.5045 40.435 67.4143 40.464C67.3241 40.4913 67.2742 40.588 67.3032 40.6781C68.0263 42.9584 70.7011 44.2837 72.9636 44.762C75.5305 45.3063 78.3116 45.0889 80.7658 44.8989L98.5184 43.5204C99.8356 43.4174 101.169 43.3288 102.506 43.2595V47.5544C100.797 47.1163 99.0353 47.2033 97.9692 47.3305C96.2977 47.5334 94.6938 47.9795 93.1446 48.4095C92.6776 48.5399 92.209 48.6687 91.7387 48.7927C87.8143 49.8266 83.695 50.4305 79.4968 50.5899C76.7222 50.6913 69.9587 50.5738 67.2791 47.1936C66.7106 46.477 66.3789 45.6606 66.0584 44.8699C65.7267 44.0534 65.3837 43.208 64.7782 42.4495C64.0326 41.5155 62.5366 40.7796 61.1404 40.6588C60.1613 40.5751 59.3464 40.7941 58.786 41.2885C58.1967 41.8102 58.0533 42.5204 57.9648 43.1452C57.5815 45.8796 57.7812 48.6414 58.559 51.3516C58.5847 51.4418 58.6798 51.4901 58.7699 51.4691C58.8601 51.4434 58.9133 51.3484 58.8875 51.2582C58.1242 48.5947 57.9277 45.8812 58.3029 43.1935C58.3867 42.6041 58.5091 41.9906 59.0115 41.5461C59.6299 40.9986 60.4962 40.9471 61.1098 41.0002C62.4206 41.1129 63.8184 41.7973 64.5109 42.6637C65.0841 43.3835 65.4175 44.2048 65.7412 45.0003C66.0713 45.8136 66.4111 46.6526 67.0101 47.4078C69.6865 50.7847 75.9846 51.0665 79.5081 50.9329C83.7305 50.7719 87.8739 50.1631 91.8225 49.1245C92.2943 49.0005 92.7629 48.87 93.2316 48.7396C94.7694 48.3128 96.3589 47.8716 98.0063 47.6719C99.6553 47.4706 101.196 47.5898 102.502 47.9489V54.8155C102.502 55.0699 102.459 55.3114 102.388 55.5385C101.114 55.5272 99.7132 56.0715 98.8823 56.9041H54.0339C53.5975 55.3759 53.2883 53.7945 53.0677 52.2083C52.6957 49.5303 52.4155 46.8055 52.2335 44.1098C52.0805 41.8489 52.0805 39.2948 54.0355 37.6152C54.0596 37.5943 54.0886 37.5782 54.1128 37.5573H70.503C70.561 37.6201 70.6093 37.6845 70.6866 37.7473C72.0312 38.8568 75.7189 39.4994 78.6659 39.5589C81.0621 39.6073 83.2328 39.3786 85.3392 39.1564C85.898 39.0968 86.4568 39.0388 87.0172 38.9857C90.7677 38.6266 94.7888 38.4881 98.958 38.567C99.9741 38.5879 101.135 38.6314 102.072 38.8907C102.198 38.9245 102.304 38.9631 102.411 39.0002C102.467 39.2047 102.506 39.4205 102.506 39.6475V42.9198Z" fill="url(#paint0_linear)"/>
<path d="M63.3449 55.0507C63.3996 55.1264 63.5043 55.1441 63.5832 55.0926C63.6605 55.0378 63.6782 54.9315 63.6251 54.8542C62.4785 53.2294 61.77 51.3871 61.5783 49.5272C61.5348 49.1004 61.6202 48.8476 61.8456 48.7317C62.4334 48.4273 63.113 49.2808 63.2418 49.4563C65.6783 52.7624 70.4031 55.1699 76.2052 56.062C78.413 56.4002 80.6449 56.5242 82.8801 56.5242C85.9028 56.5242 88.9286 56.2987 91.8949 56.0781C91.9883 56.07 92.0591 55.9895 92.0527 55.8945C92.0446 55.8011 91.9529 55.7351 91.8691 55.7367C86.7273 56.1216 81.4131 56.5177 76.2551 55.7238C70.5432 54.8478 65.8989 52.4886 63.5156 49.255C63.0582 48.6366 62.3416 48.1004 61.6878 48.4289C61.1484 48.7043 61.2144 49.3516 61.2369 49.5642C61.4366 51.4805 62.1645 53.3775 63.3449 55.0507Z" fill="url(#paint1_linear)"/>
<defs>
<linearGradient id="paint0_linear" x1="52" y1="0.205078" x2="52" y2="61.7947" gradientUnits="userSpaceOnUse">
<stop stop-color="#8FD400"/>
<stop offset="0.536458" stop-color="#67B437"/>
<stop offset="1" stop-color="#52B039"/>
</linearGradient>
<linearGradient id="paint1_linear" x1="76.6375" y1="48.3291" x2="76.6375" y2="56.5242" gradientUnits="userSpaceOnUse">
<stop stop-color="#8FD400"/>
<stop offset="0.536458" stop-color="#67B437"/>
<stop offset="1" stop-color="#52B039"/>
</linearGradient>
</defs>
</svg>
