<svg width="63" height="65" viewBox="0 0 63 65" fill="none" xmlns="http://www.w3.org/2000/svg">
<path d="M59.678 24.4807C57.8464 24.4807 56.3569 26.0659 56.3569 28.0158C56.3569 29.658 57.4204 31.0308 58.8495 31.4251L53.4203 43.3684L47.8164 27.3808C49.9245 27.118 51.5707 25.226 51.5707 22.9103C51.5707 20.4163 49.667 18.3873 47.3256 18.3873C44.9852 18.3873 43.0806 20.4163 43.0806 22.9103C43.0806 25.0063 44.4314 26.7569 46.2495 27.2678L38.5798 41.3504L32.2168 17.0447C34.8706 16.668 36.9265 14.2447 36.9265 11.3134C36.9265 8.12192 34.4915 5.52502 31.4991 5.52502C28.5067 5.52502 26.0717 8.12192 26.0717 11.3134C26.0717 14.2438 28.1276 16.668 30.7814 17.0447L24.4184 41.3504L16.8 27.3597C18.8145 27.0078 20.3615 25.1552 20.3615 22.9103C20.3615 20.4163 18.4569 18.3873 16.1165 18.3873C13.7761 18.3873 11.8715 20.4163 11.8715 22.9103C11.8715 25.0707 13.3015 26.8754 15.2043 27.322L9.57967 43.3675L4.14957 31.4241C5.57869 31.0299 6.6431 29.658 6.6431 28.0149C6.6431 26.0659 5.15274 24.4798 3.3211 24.4798C1.48945 24.4798 0 26.0649 0 28.0149C0 29.7103 1.12925 31.1282 2.6277 31.4692V59.1822C2.6277 59.5811 2.93838 59.9045 3.3211 59.9045H59.6771C60.0598 59.9045 60.3705 59.5811 60.3705 59.1822V31.4692C61.8708 31.1292 63 29.7113 63 28.0158C63 26.0668 61.5097 24.4807 59.678 24.4807ZM44.4674 22.9093C44.4674 21.2112 45.7497 19.83 47.3265 19.83C48.9033 19.83 50.1848 21.2121 50.1848 22.9093C50.1848 24.6066 48.9033 25.9887 47.3265 25.9887C45.7497 25.9896 44.4674 24.6075 44.4674 22.9093ZM27.4594 11.3134C27.4594 8.91771 29.2721 6.96866 31.5 6.96866C33.7288 6.96866 35.5406 8.91771 35.5406 11.3134C35.5406 13.709 33.7288 15.6581 31.5 15.6581C29.2721 15.6581 27.4594 13.709 27.4594 11.3134ZM13.2592 22.9093C13.2592 21.2112 14.5406 19.83 16.1174 19.83C17.6942 19.83 18.9765 21.2121 18.9765 22.9093C18.9765 24.6066 17.6942 25.9887 16.1174 25.9887C14.5406 25.9896 13.2592 24.6075 13.2592 22.9093ZM1.38769 28.0158C1.38769 26.8626 2.25579 25.9243 3.3229 25.9243C4.39001 25.9243 5.2581 26.8635 5.2581 28.0158C5.2581 29.1682 4.39001 30.1064 3.3229 30.1064C2.25579 30.1064 1.38769 29.1682 1.38769 28.0158ZM58.9873 58.4609H58.9855H4.01629V34.4998L9.03757 45.5444C9.15823 45.8072 9.41398 45.9598 9.69584 45.957C9.9759 45.9432 10.219 45.7567 10.3154 45.4838L16.0967 28.9899L24.0446 43.5853C24.1833 43.8389 24.4535 43.9813 24.7335 43.9455C25.0118 43.9096 25.2423 43.701 25.3162 43.4198L31.5018 19.7905L37.6874 43.4198C37.7613 43.702 37.9918 43.9096 38.2701 43.9455C38.542 43.9822 38.8203 43.8398 38.959 43.5853L46.9078 28.9899L52.6891 45.4838C52.7855 45.7567 53.0295 45.9432 53.3087 45.957C53.5833 45.9588 53.8463 45.8072 53.966 45.5444L58.9873 34.4998V58.4609ZM59.678 30.1064C58.6118 30.1064 57.7428 29.1682 57.7428 28.0158C57.7428 26.8626 58.6109 25.9243 59.678 25.9243C60.7451 25.9243 61.6141 26.8635 61.6141 28.0158C61.6141 29.1682 60.746 30.1064 59.678 30.1064Z" fill="url(#paint0_linear)"/>
<path d="M43.775 52.8821H41.6192C41.2365 52.8821 40.9258 53.2046 40.9258 53.6034C40.9258 54.0023 41.2365 54.3257 41.6192 54.3257H43.775C44.1577 54.3257 44.4684 54.0032 44.4684 53.6034C44.4684 53.2046 44.1577 52.8821 43.775 52.8821Z" fill="url(#paint1_linear)"/>
<path d="M38.8365 52.8821H31.5054C31.1227 52.8821 30.812 53.2046 30.812 53.6034C30.812 54.0023 31.1227 54.3257 31.5054 54.3257H38.8374C39.2201 54.3257 39.5308 54.0032 39.5308 53.6034C39.5299 53.2046 39.2201 52.8821 38.8365 52.8821Z" fill="url(#paint2_linear)"/>
<path d="M28.1609 52.8822C20.9991 52.6506 14.7351 52.6506 7.84889 52.8822C7.46617 52.895 7.1654 53.2286 7.1789 53.6265C7.18971 54.0244 7.51119 54.3185 7.89301 54.3249C14.7513 54.0933 20.9883 54.0933 28.1177 54.3249H28.1393C28.5121 54.3249 28.8201 54.017 28.8318 53.6256C28.8435 53.2277 28.5427 52.8941 28.1609 52.8822Z" fill="url(#paint3_linear)"/>
<path d="M32.3718 10.6169C32.6681 10.9615 32.7941 11.4623 32.7482 12.1046C32.7203 12.5025 33.0066 12.848 33.3876 12.8784C33.4056 12.8802 33.4227 12.8802 33.4398 12.8802C33.7991 12.8802 34.1026 12.5907 34.1305 12.2121C34.2052 11.1618 33.9603 10.3017 33.4038 9.65383C32.5564 8.66874 31.3299 8.59707 31.1921 8.59247C31.184 8.59155 31.1759 8.59155 31.1678 8.59155C30.7959 8.59155 30.4879 8.89847 30.4753 9.2881C30.4618 9.686 30.7608 10.0214 31.1435 10.0343C31.1516 10.0352 31.9134 10.0857 32.3718 10.6169Z" fill="url(#paint4_linear)"/>
<defs>
<linearGradient id="paint0_linear" x1="31.5" y1="5.52502" x2="31.5" y2="59.9045" gradientUnits="userSpaceOnUse">
<stop stop-color="#8FD400"/>
<stop offset="0.515625" stop-color="#67B437"/>
<stop offset="1" stop-color="#52B039"/>
</linearGradient>
<linearGradient id="paint1_linear" x1="42.6971" y1="52.8821" x2="42.6971" y2="54.3257" gradientUnits="userSpaceOnUse">
<stop stop-color="#8FD400"/>
<stop offset="0.515625" stop-color="#67B437"/>
<stop offset="1" stop-color="#52B039"/>
</linearGradient>
<linearGradient id="paint2_linear" x1="35.1714" y1="52.8821" x2="35.1714" y2="54.3257" gradientUnits="userSpaceOnUse">
<stop stop-color="#8FD400"/>
<stop offset="0.515625" stop-color="#67B437"/>
<stop offset="1" stop-color="#52B039"/>
</linearGradient>
<linearGradient id="paint3_linear" x1="18.0053" y1="52.7085" x2="18.0053" y2="54.3249" gradientUnits="userSpaceOnUse">
<stop stop-color="#8FD400"/>
<stop offset="0.515625" stop-color="#67B437"/>
<stop offset="1" stop-color="#52B039"/>
</linearGradient>
<linearGradient id="paint4_linear" x1="32.3092" y1="8.59155" x2="32.3092" y2="12.8802" gradientUnits="userSpaceOnUse">
<stop stop-color="#8FD400"/>
<stop offset="0.515625" stop-color="#67B437"/>
<stop offset="1" stop-color="#52B039"/>
</linearGradient>
</defs>
</svg>
