<svg width="96" height="96" viewBox="0 0 96 96" fill="none" xmlns="http://www.w3.org/2000/svg">
<path d="M84.204 33.5091H72.4954L51.3609 12.3588C51.2849 12.2828 51.1831 12.2555 51.0841 12.2441C50.7558 10.7515 49.4266 9.62878 47.8365 9.62878C46.1776 9.62878 44.8112 10.8518 44.5588 12.4405L23.5032 33.5091H11.7946C5.2908 33.5091 0 38.7999 0 45.3051V74.5751C0 81.0789 5.2908 86.3711 11.7946 86.3711H84.204C90.7092 86.3711 96 81.0803 96 74.5751V45.3037C96 38.7999 90.7078 33.5091 84.204 33.5091ZM93.4808 40.3814C91.3888 40.4215 89.3313 40.5391 87.3182 40.7326C86.1941 39.9168 84.8248 39.4221 83.3336 39.4221H73.3729C74.5701 38.8156 75.9394 38.3066 77.4736 37.9267C81.4309 36.9502 86.3446 36.8327 91.2211 37.5037C92.1301 38.3224 92.9015 39.2917 93.4808 40.3814ZM8.28174 78.8221C8.2502 78.8235 8.21722 78.8206 8.18568 78.8221C7.31105 77.7926 6.76333 76.4778 6.76333 75.0239V68.6047C6.76476 68.6047 6.76763 68.6047 6.76906 68.6047C6.7662 68.5588 6.76476 68.5129 6.76333 68.467V46.2442C6.76333 42.9895 9.41159 40.3412 12.6664 40.3412H83.3365C86.5913 40.3412 89.2381 42.988 89.2381 46.2442V75.0225H89.2367C89.2367 78.2772 86.5898 80.9255 83.3351 80.9255H12.6649C11.0074 80.9255 9.51196 80.2344 8.43947 79.1303C8.46527 79.1289 8.49252 79.1303 8.51976 79.1289C8.43516 79.03 8.36061 78.9253 8.28174 78.8221ZM49.917 39.359C49.907 39.382 49.8926 39.4006 49.8826 39.4236H43.1723C42.93 37.8894 42.5285 36.3423 41.9564 34.7981H49.8697V34.7966C50.4891 36.1889 50.535 37.9596 49.917 39.359ZM50.1837 34.7966H54.9583C55.6781 36.3208 56.1369 37.8765 56.0208 39.4221H50.2023C50.8132 37.9969 50.7787 36.2261 50.1837 34.7966ZM42.8755 39.4221H38.3217C37.5374 37.8306 36.6585 36.2849 35.6792 34.7966H41.641C42.2217 36.3423 42.6303 37.8879 42.8755 39.4221ZM37.9805 39.4221H34.1436C33.3664 37.7919 32.3972 36.2391 31.2687 34.7966H35.2834C36.2742 36.2892 37.1861 37.8263 37.9805 39.4221ZM84.2011 34.7966C86.7103 34.7966 89.013 35.6813 90.821 37.151C86.0536 36.5416 81.2761 36.6835 77.4019 37.6413C75.6354 38.0786 74.0855 38.6894 72.7578 39.4221H56.3176C56.4294 37.8679 55.9849 36.3136 55.2824 34.7966H59.5552C60.9187 36.4713 62.6092 38.0299 64.542 39.3834C64.6997 39.3734 64.8574 39.3648 65.0151 39.3562C63.0494 38.0199 61.3288 36.4685 59.9351 34.7966H65.2202C65.6604 36.1186 66.2669 37.4004 67.1013 38.5991C67.2734 38.8472 67.3967 39.0838 67.4827 39.3003C67.5874 39.3017 67.6921 39.3074 67.7953 39.3089C67.6691 38.949 67.467 38.612 67.3408 38.4299C66.5436 37.2829 65.9572 36.0598 65.5285 34.7966H84.2011ZM47.8337 10.5493C49.1643 10.5493 50.2454 11.6304 50.2454 12.9595C50.2454 13.5575 50.0188 14.098 49.6561 14.521L46.2737 11.1386C46.6952 10.7773 47.2358 10.5493 47.8337 10.5493ZM46.0142 11.3981L49.3965 14.7805C48.975 15.1418 48.4344 15.3698 47.8351 15.3698C46.506 15.3698 45.4249 14.2887 45.4249 12.9595C45.4249 12.3616 45.6514 11.8197 46.0142 11.3981ZM44.5961 13.7037C44.9359 15.1805 46.2565 16.2889 47.8351 16.2889C49.5141 16.2889 50.892 15.0357 51.1186 13.4184L71.1949 33.5076H34.8017C34.7773 33.4732 34.7544 33.4374 34.73 33.403C34.6411 33.4402 34.5493 33.4746 34.4576 33.5076H24.8037L44.5961 13.7037ZM30.8816 34.7966C32.033 36.2347 33.0223 37.7876 33.8152 39.4221H29.0908C24.808 36.6133 19.3379 34.983 13.3632 34.7966H30.8816ZM11.7932 34.7966H12.1215C11.9853 34.7966 11.8477 34.7995 11.71 34.8009C11.7387 34.8009 11.7659 34.7966 11.7932 34.7966ZM8.84667 35.2253C9.36715 35.178 9.88762 35.1321 10.4138 35.1078C17.2761 34.7866 23.6408 36.3566 28.5216 39.4221H12.6649C10.4956 39.4221 8.58141 40.4602 7.33112 42.0432C6.5927 40.4674 5.75535 38.9389 4.82911 37.4592C5.97473 36.4412 7.33829 35.667 8.84667 35.2253ZM4.61403 37.6542C5.54745 39.1497 6.38767 40.6968 7.12609 42.2912C6.74612 42.8217 6.44072 43.4082 6.22135 44.0344C6.36079 43.4824 6.10485 42.84 6.00484 42.5894C5.43131 41.1571 4.69433 39.7749 3.83977 38.4586C4.08352 38.1761 4.34161 37.9095 4.61403 37.6542ZM3.629 38.7052C4.45201 39.9828 5.17609 41.3148 5.72955 42.7013C6.03925 43.4727 6.04642 43.996 5.75535 44.3C5.1933 44.8922 4.06918 44.2455 3.28058 43.5114C2.80025 43.0612 2.27834 42.6511 1.74209 42.2525C2.14069 40.9434 2.78735 39.7433 3.629 38.7052ZM1.28757 45.3022C1.28757 44.353 1.42522 43.434 1.66323 42.5565C2.15503 42.9278 2.6368 43.3107 3.08128 43.7236C3.7265 44.3244 4.5237 44.8248 5.19043 44.8248C5.48293 44.8248 5.75105 44.7287 5.96899 44.5007C6.05681 44.409 6.11919 44.3072 6.16507 44.2C5.95788 44.8445 5.84282 45.5298 5.84282 46.2428V49.4746C4.9223 49.413 3.95591 49.0961 3.19742 48.5412C2.49771 48.0294 1.87687 47.397 1.28757 46.7447V45.3022ZM1.28757 57.9055L5.84282 56.1075V65.0388C5.66216 65.0603 5.47863 65.0818 5.2994 65.1047C4.64701 65.1893 3.99749 65.2725 3.34223 65.347C2.66834 65.4245 1.97724 65.4775 1.289 65.532V57.9055H1.28757ZM1.28757 47.1777C1.82239 47.7584 2.38731 48.3147 3.02106 48.7792C3.8283 49.37 4.85778 49.7041 5.84138 49.7671V49.9349C5.6091 50.1873 5.37539 50.4396 5.14455 50.6934C4.05198 51.8978 2.92213 53.1438 1.58867 54.093C1.48974 54.1632 1.3865 54.2149 1.28757 54.2794V47.1777ZM1.28614 54.6221C1.44386 54.526 1.60301 54.4428 1.75786 54.3324C3.11856 53.3646 4.25845 52.1071 5.36249 50.8913C5.52164 50.7163 5.68223 50.5443 5.84138 50.3694V55.7906L1.28614 57.5886V54.6221ZM1.28614 65.8274H1.28757C1.98727 65.7714 2.68985 65.717 3.37378 65.6395C4.03047 65.565 4.68286 65.4804 5.33524 65.3972C5.50157 65.3757 5.67363 65.3556 5.84138 65.3356V68.3882C4.333 68.5258 2.81459 68.642 1.28614 68.7423V65.8274ZM1.28757 74.5737V69.0363C2.81602 68.9359 4.33444 68.8197 5.84282 68.6835V74.6267C4.36025 74.7873 2.85617 74.9164 1.30764 74.978C1.30191 74.8418 1.28757 74.7099 1.28757 74.5737ZM1.32198 75.2777C2.86334 75.2175 4.36598 75.0984 5.84138 74.9422V75.0225C5.84138 76.429 6.2701 77.7367 7.00278 78.8235C5.40263 78.8407 3.76378 78.7805 2.09194 78.5998C1.6618 77.566 1.40084 76.4462 1.32198 75.2777ZM11.7932 85.0821C7.54333 85.0821 3.88278 82.54 2.22959 78.9009C3.7222 79.0615 5.20763 79.1777 6.64432 79.1777C6.85796 79.1777 7.06587 79.1648 7.27664 79.1605C8.52549 80.7821 10.464 81.846 12.6635 81.846H16.4029C15.6674 83.0762 14.7956 84.1631 13.802 85.0821H11.7932ZM14.2278 85.0821C15.1899 84.1516 16.0344 83.0691 16.7485 81.846H25.1263C23.6193 83.0117 22.0708 84.0957 20.4807 85.0821H14.2278ZM21.0198 85.0821C22.5855 84.0928 24.1097 83.0088 25.5937 81.846H34.8992C33.7564 82.8669 32.6596 83.9695 31.5885 85.0821H21.0198ZM37.9045 85.0821H31.9986C33.0797 83.9609 34.1923 82.8583 35.3494 81.846H38.0192C38.0249 82.9285 37.9805 84.0082 37.9045 85.0821ZM44.4828 84.3781C44.4542 84.6104 44.4169 84.847 44.3825 85.0807H38.1984C38.2744 84.0086 38.3188 82.9296 38.3131 81.846H44.6549C44.6363 82.692 44.5875 83.5379 44.4828 84.3781ZM44.6793 85.0821C44.7108 84.8599 44.7467 84.6362 44.7739 84.4154C44.88 83.5623 44.9302 82.7034 44.9488 81.846H48.6968C48.8933 82.9457 49.1241 84.024 49.3851 85.0821H44.6793ZM49.689 85.0821C49.4266 84.024 49.1958 82.9457 48.9979 81.846H54.8938C54.141 82.7536 53.7252 83.8992 53.6005 85.0821H49.689ZM53.8901 85.0807C54.022 83.8806 54.4637 82.7249 55.2766 81.846H64.1749C64.499 82.008 64.8287 82.1643 65.1456 82.3306C65.5112 82.5228 65.8797 82.7163 66.2482 82.9013C68.0133 83.7903 69.8543 84.5029 71.7412 85.0807H53.8901ZM84.204 85.0821H72.7506C70.554 84.4699 68.4176 83.6655 66.3801 82.6403C66.0131 82.4554 65.6475 82.2632 65.2833 82.0711C65.1384 81.9951 64.9879 81.922 64.8416 81.846H83.3365C85.4528 81.846 87.3225 80.8567 88.5757 79.3397C88.3219 79.8315 88.1011 80.3391 87.8903 80.8409C87.529 81.6969 87.1562 82.5816 86.5999 83.3314C86.2558 83.7946 85.6105 84.4814 84.5366 85.0664C84.4233 85.0678 84.3158 85.0821 84.204 85.0821ZM85.1417 85.0334C85.979 84.4943 86.5282 83.915 86.8336 83.5035C87.4114 82.7264 87.7914 81.8245 88.1584 80.9527C88.5226 80.091 88.8969 79.1992 89.4603 78.445C90.1256 77.556 91.3573 76.928 92.4212 76.928C92.4499 76.928 92.48 76.928 92.5086 76.9294C92.9875 76.9452 93.6471 77.0986 94.0686 77.7467C94.1059 77.8026 94.1217 77.87 94.1518 77.9302C92.8442 81.7958 89.3485 84.6592 85.1417 85.0334ZM94.7124 74.5751C94.7124 75.6046 94.5561 76.5997 94.278 77.5417C93.8894 76.9768 93.2843 76.6613 92.5187 76.6369C91.3845 76.604 90.1529 77.2047 89.3858 78.1052C89.8618 77.1746 90.1557 76.138 90.1557 75.0239V73.6446C91.7 73.1786 93.2155 72.6294 94.7124 72.0315V74.5751ZM90.1543 73.3406V69.4922H90.1557C91.168 69.1667 92.1774 68.824 93.1696 68.4283C93.6844 68.2218 94.1977 68.0053 94.711 67.7903V71.7175C93.2141 72.3183 91.6971 72.8717 90.1543 73.3406ZM94.7124 67.4705C94.7038 67.4734 94.6952 67.4777 94.6866 67.4806C94.1461 67.7085 93.6041 67.9365 93.0607 68.153C92.1029 68.5359 91.1322 68.8714 90.1557 69.1825V64.7563C91.6612 64.6144 93.1825 64.3133 94.7124 63.8544V67.4705ZM94.7124 63.5476C93.1825 64.0121 91.6598 64.3176 90.1557 64.4624V59.8025L94.7124 59.2662V63.5476ZM94.7124 58.9694L90.1557 59.5056V50.2303C91.6455 50.0682 93.1668 49.9535 94.7124 49.8732V58.9694ZM94.7124 49.5764C93.1682 49.6553 91.6469 49.77 90.1557 49.932V47.0027C91.6641 46.8622 93.1854 46.7447 94.7124 46.6414V49.5764ZM90.1557 46.7074V46.2442C90.1557 44.1222 89.1621 42.2468 87.6365 40.995C89.5922 40.8144 91.5896 40.7054 93.6199 40.671C94.3124 42.0704 94.711 43.6404 94.711 45.3051V46.3446H94.7124C93.1854 46.4493 91.6641 46.5654 90.1557 46.7074Z" fill="url(#paint0_linear)"/>
<path d="M59.1264 67.9064C64.1433 67.9064 67.3838 64.7534 67.3838 59.8756C67.3838 54.9977 64.1419 51.8447 59.1264 51.8447C54.1109 51.8447 50.869 54.9977 50.869 59.8756C50.869 64.7548 54.1095 67.9064 59.1264 67.9064ZM59.1264 52.7638C63.5827 52.7638 66.4632 55.554 66.4632 59.8741C66.4632 64.1957 63.5827 66.9859 59.1264 66.9859C54.6686 66.9859 51.7895 64.1942 51.7895 59.8741C51.7895 55.554 54.6701 52.7638 59.1264 52.7638Z" fill="url(#paint1_linear)"/>
<path d="M59.1264 64.9971C62.1289 64.9971 64.228 62.8909 64.228 59.8755C64.2265 56.8946 62.0815 54.7324 59.1264 54.7324C56.2186 54.7324 54.0249 56.9434 54.0249 59.8755C54.0249 62.8435 56.1699 64.9971 59.1264 64.9971ZM59.1264 55.6529C61.5883 55.6529 63.3075 57.3893 63.3075 59.8755C63.3075 62.389 61.627 64.0781 59.1264 64.0781C56.6646 64.0781 54.9454 62.3503 54.9454 59.8755C54.9454 57.428 56.7047 55.6529 59.1264 55.6529Z" fill="url(#paint2_linear)"/>
<path d="M34.8906 67.558H38.1496C38.4034 67.558 38.6099 67.3515 38.6099 67.0977V62.5884L38.5224 59.2433L44.8427 67.3788C44.9302 67.4906 45.0649 67.5566 45.2069 67.5566H47.9699C48.2236 67.5566 48.4301 67.3501 48.4301 67.0963V52.6549C48.4287 52.4011 48.2222 52.196 47.9699 52.196H44.7309C44.4771 52.196 44.2706 52.4025 44.2706 52.6563L44.272 57.5256L44.4125 60.6169L38.0191 52.3753C37.9317 52.2634 37.7969 52.1975 37.655 52.1975H34.8906C34.6368 52.1975 34.4303 52.4039 34.4303 52.6577V67.0977C34.4303 67.3515 34.6368 67.558 34.8906 67.558ZM35.3508 53.1166H37.4298L44.5731 62.3245C44.6965 62.4837 44.9072 62.5454 45.095 62.4737C45.2843 62.4048 45.4048 62.2213 45.3947 62.022L45.1897 57.504V53.1166H47.5082V66.636H45.432L38.3905 57.5729C38.2672 57.4152 38.0579 57.3535 37.8729 57.4223C37.6851 57.4883 37.5632 57.6675 37.5675 57.8668L37.6908 62.5998V66.6375H35.3508V53.1166Z" fill="url(#paint3_linear)"/>
<defs>
<linearGradient id="paint0_linear" x1="48" y1="9.62878" x2="48" y2="86.3711" gradientUnits="userSpaceOnUse">
<stop stop-color="#8FD400"/>
<stop offset="0.526042" stop-color="#67B437"/>
<stop offset="1" stop-color="#52B039"/>
</linearGradient>
<linearGradient id="paint1_linear" x1="59.1264" y1="51.8447" x2="59.1264" y2="67.9064" gradientUnits="userSpaceOnUse">
<stop stop-color="#8FD400"/>
<stop offset="0.526042" stop-color="#67B437"/>
<stop offset="1" stop-color="#52B039"/>
</linearGradient>
<linearGradient id="paint2_linear" x1="59.1264" y1="54.7324" x2="59.1264" y2="64.9971" gradientUnits="userSpaceOnUse">
<stop stop-color="#8FD400"/>
<stop offset="0.526042" stop-color="#67B437"/>
<stop offset="1" stop-color="#52B039"/>
</linearGradient>
<linearGradient id="paint3_linear" x1="41.4302" y1="52.196" x2="41.4302" y2="67.558" gradientUnits="userSpaceOnUse">
<stop stop-color="#8FD400"/>
<stop offset="0.526042" stop-color="#67B437"/>
<stop offset="1" stop-color="#52B039"/>
</linearGradient>
</defs>
</svg>
