<svg width="95" height="95" viewBox="0 0 95 95" fill="none" xmlns="http://www.w3.org/2000/svg">
<g clip-path="url(#clip0)">
<path d="M47.6253 32.6461C32.0013 32.6461 19.2908 45.0249 19.2908 60.2391C19.2908 75.4533 32.0013 87.8321 47.6253 87.8321C63.2493 87.8321 75.9611 75.4546 75.9611 60.2391C75.9611 45.0237 63.2493 32.6461 47.6253 32.6461ZM47.6253 85.9688C33.0284 85.9688 21.1541 74.4262 21.1541 60.2404C21.1541 46.0546 33.0284 34.512 47.6253 34.512C62.2222 34.512 74.0964 46.0546 74.0964 60.2404C74.0964 74.4262 62.2222 85.9688 47.6253 85.9688Z" fill="url(#paint0_linear)"/>
<path d="M77.9935 34.1638L78.0768 34.2316C78.6121 34.6683 79.2652 34.8809 79.9145 34.8809C80.7418 34.8809 81.564 34.5339 82.1339 33.8628C82.6282 33.2788 82.8613 32.5361 82.7909 31.7728C82.7217 31.0082 82.3542 30.3192 81.7587 29.8339L73.6816 23.2423C72.4624 22.2486 70.6426 22.4125 69.6257 23.6112C69.1314 24.1951 68.897 24.9379 68.9675 25.6999C69.0379 26.4645 69.4042 27.1535 70.001 27.6401L70.0573 27.6862L66.9479 31.3553C62.4041 28.3061 57.1035 26.3018 51.3918 25.6833V22.3625C55.5936 20.7271 58.5442 16.7405 58.7863 12.2031C58.9515 9.11287 57.9026 6.14303 55.8344 3.84169C53.7648 1.54035 50.9243 0.181574 47.8341 0.0176498C41.4411 -0.33325 35.988 4.59087 35.6474 10.9698C35.3784 16.0079 38.4008 20.6068 43.0598 22.3945V25.7857C37.5876 26.5067 32.511 28.4969 28.144 31.4629L24.9424 27.6849L24.9987 27.6388C25.5955 27.1522 25.9618 26.4632 26.0322 25.6974C26.1026 24.9354 25.8683 24.1939 25.374 23.6086C24.3584 22.4112 22.5386 22.2473 21.3181 23.2411L13.2423 29.8326C12.6455 30.318 12.2792 31.0082 12.2088 31.7728C12.1384 32.5348 12.3727 33.2763 12.8671 33.8615C13.437 34.5326 14.2591 34.8797 15.0864 34.8797C15.7345 34.8797 16.3876 34.6658 16.9242 34.2291L17.0061 34.1612L20.6022 38.4027C15.7665 44.3744 12.8632 51.9713 12.8632 60.2366C12.8632 79.4055 28.4578 95 47.6266 95C66.7955 95 82.39 79.4055 82.39 60.2366C82.39 51.9021 79.4381 44.2438 74.5294 38.2491L77.9935 34.1638ZM71.0473 24.8175C71.4071 24.3962 72.0744 24.3373 72.5034 24.6882L80.5792 31.2785C80.7841 31.4462 80.9109 31.6831 80.9352 31.9457C80.9595 32.2056 80.8801 32.4592 80.7124 32.6577C80.3525 33.0803 79.6853 33.138 79.2563 32.7871L71.1805 26.1968C70.9743 26.029 70.8488 25.7921 70.8244 25.5296C70.7988 25.2696 70.8782 25.016 71.0473 24.8175ZM71.2381 29.1756L76.2851 33.2942L73.5394 36.5343L68.4924 32.4144L71.2381 29.1756ZM37.5082 11.0684C37.7938 5.71529 42.3939 1.61975 47.7329 1.87844C50.3263 2.01803 52.7096 3.15654 54.4461 5.08777C56.1827 7.01899 57.0612 9.50987 56.9242 12.1032C56.7347 15.666 54.5575 18.8318 51.3905 20.3506V19.0764C53.9569 17.642 55.6384 14.9962 55.7972 12.043C56.0495 7.31226 52.4048 3.25771 47.674 3.00414C42.9381 2.7685 38.8887 6.3966 38.6351 11.1273C38.4584 14.4519 40.1873 17.4922 43.0598 19.0815V20.3532C39.5393 18.687 37.2969 15.0487 37.5082 11.0684ZM47.2261 13.6285C44.9299 13.6285 43.0601 15.2741 43.0601 17.2988V17.5639C41.0034 16.1411 39.8021 13.7668 39.9379 11.1991C40.1518 7.18676 43.5826 4.11319 47.6039 4.30913C51.6162 4.52428 54.7064 7.96284 54.4938 11.9764C54.3734 14.2291 53.2081 16.2769 51.3908 17.5524V17.2988C51.3908 15.2741 49.5223 13.6285 47.2261 13.6285ZM49.5258 17.2988V25.5309C48.8958 25.4963 48.2631 25.4758 47.6241 25.4758C46.7135 25.4758 45.8145 25.5219 44.9219 25.5911V17.2988H44.9232C44.9232 16.3204 45.9771 15.4931 47.2245 15.4931C48.4719 15.4931 49.5258 16.3204 49.5258 17.2988ZM15.7434 32.7883C15.3131 33.1392 14.6459 33.0791 14.2886 32.659C14.1196 32.4592 14.0401 32.2069 14.0645 31.947C14.0888 31.6844 14.2156 31.4475 14.4205 31.2797L22.4963 24.6895C22.6859 24.5345 22.9215 24.459 23.1546 24.459C23.4543 24.459 23.7514 24.5806 23.9511 24.8175C24.1202 25.0173 24.1996 25.2696 24.1765 25.5296C24.1522 25.7921 24.0254 26.029 23.8192 26.1981L15.7434 32.7883ZM18.7133 33.2955L23.7616 29.1756L26.5073 32.4144L21.459 36.5343L18.7133 33.2955ZM80.5241 60.2392C80.5241 78.381 65.7658 93.1392 47.6254 93.1392C29.4849 93.1392 14.7266 78.381 14.7266 60.2392C14.7266 42.0987 29.4861 27.3404 47.6254 27.3404C65.7646 27.3404 80.5241 42.0987 80.5241 60.2392Z" fill="url(#paint1_linear)"/>
<path d="M54.1286 66.2007H51.087V46.462C51.087 46.1584 50.9385 45.8741 50.6913 45.7C50.4428 45.5258 50.124 45.481 49.8409 45.5847L40.4819 48.9452C40.1105 49.0783 39.8646 49.4292 39.8646 49.8224V54.7376C39.8646 55.0347 40.0055 55.3126 40.245 55.488C40.4845 55.6635 40.7918 55.7173 41.0748 55.6263L43.9115 54.7401V66.2007H40.5805C40.0657 66.2007 39.6482 66.6169 39.6482 67.133V71.7587C39.6482 72.2736 40.0644 72.6911 40.5805 72.6911H54.1311C54.646 72.6911 55.0635 72.2749 55.0635 71.7587V67.133C55.0609 66.6169 54.6434 66.2007 54.1286 66.2007ZM41.509 70.8251V68.0641H44.84C45.3548 68.0641 45.7723 67.6478 45.7723 67.1317V53.4723C45.7723 53.1752 45.6314 52.8973 45.3919 52.7218C45.1525 52.5451 44.8438 52.4926 44.5621 52.5835L41.7241 53.4697V50.4794L49.2198 47.7874V67.133C49.2198 67.6478 49.6373 68.0653 50.1521 68.0653H53.1937V70.8251H41.509V70.8251Z" fill="url(#paint2_linear)"/>
<path d="M66.3932 48.0204C68.359 51.2874 69.5654 54.7951 69.8689 58.6038C69.9355 59.4413 71.2507 59.449 71.1842 58.6038C70.8627 54.5697 69.6128 50.8199 67.5292 47.3571C67.0937 46.6322 65.9552 47.293 66.3932 48.0204Z" fill="url(#paint3_linear)"/>
<path d="M54.5267 36.93C53.7263 36.6483 53.3831 37.9187 54.1771 38.1979C58.5659 39.7424 62.2209 42.5111 65.1011 46.1444C65.6261 46.8065 66.552 45.8703 66.0308 45.2146C63.0059 41.397 59.1294 38.5501 54.5267 36.93Z" fill="url(#paint4_linear)"/>
</g>
<defs>
<linearGradient id="paint0_linear" x1="47.6259" y1="32.6461" x2="47.6259" y2="87.8321" gradientUnits="userSpaceOnUse">
<stop stop-color="#8FD400"/>
<stop offset="0.489583" stop-color="#67B437"/>
<stop offset="1" stop-color="#52B039"/>
</linearGradient>
<linearGradient id="paint1_linear" x1="47.4999" y1="0" x2="47.4999" y2="95" gradientUnits="userSpaceOnUse">
<stop stop-color="#8FD400"/>
<stop offset="0.489583" stop-color="#67B437"/>
<stop offset="1" stop-color="#52B039"/>
</linearGradient>
<linearGradient id="paint2_linear" x1="47.3558" y1="45.5295" x2="47.3558" y2="72.6911" gradientUnits="userSpaceOnUse">
<stop stop-color="#8FD400"/>
<stop offset="0.489583" stop-color="#67B437"/>
<stop offset="1" stop-color="#52B039"/>
</linearGradient>
<linearGradient id="paint3_linear" x1="68.7406" y1="47.0431" x2="68.7406" y2="59.2348" gradientUnits="userSpaceOnUse">
<stop stop-color="#8FD400"/>
<stop offset="0.489583" stop-color="#67B437"/>
<stop offset="1" stop-color="#52B039"/>
</linearGradient>
<linearGradient id="paint4_linear" x1="59.9557" y1="36.8895" x2="59.9557" y2="46.3709" gradientUnits="userSpaceOnUse">
<stop stop-color="#8FD400"/>
<stop offset="0.489583" stop-color="#67B437"/>
<stop offset="1" stop-color="#52B039"/>
</linearGradient>
<clipPath id="clip0">
<rect width="95" height="95" fill="white"/>
</clipPath>
</defs>
</svg>
