<svg width="82" height="110" viewBox="0 0 82 110" fill="none" xmlns="http://www.w3.org/2000/svg">
<path d="M81.5107 61.9979C81.1234 61.8533 73.8738 59.2323 66.5559 59.5348C66.5593 59.5065 66.5659 59.4799 66.5692 59.4517C66.7537 57.9127 66.6523 56.4235 66.3133 55.0241C67.5382 54.4939 68.7249 53.8806 69.7885 53.1012C76.892 47.8924 76.282 38.7896 76.2521 38.404L76.2139 37.8988L75.7086 37.8622C75.2133 37.8273 63.4928 37.0295 56.4775 42.1718C55.2559 43.0676 54.272 44.0814 53.4693 45.1451C53.8815 41.2078 54.0477 37.1691 54.0194 32.9493C54.2255 32.956 54.4632 32.9626 54.7573 32.9626C57.0925 32.9626 61.9405 32.6103 65.1731 29.9378C69.5193 26.3462 69.147 20.0904 69.1287 19.8261L69.0938 19.3208L68.5886 19.2793C68.2828 19.2593 61.1311 18.7059 56.8332 22.2593C55.3573 23.4792 54.4349 25.0049 53.8482 26.5007C53.7585 24.4614 53.6322 22.3673 53.4842 20.2283C54.8072 18.7824 58.314 14.526 58.4104 9.90391C58.5301 4.26638 53.5524 0.462038 53.3413 0.304147L52.9358 0L52.5751 0.354008C52.3591 0.566745 47.2683 5.62424 47.152 11.2003C47.0622 15.3985 49.7996 18.5779 51.2904 19.994C51.5247 23.308 51.6992 26.4974 51.789 29.5754C51.2438 28.0131 50.4444 26.4509 49.2661 25.1877C45.4202 21.0593 39.2009 21.8006 38.9383 21.8338L38.4364 21.8986L38.4248 22.4039C38.4181 22.708 38.2918 29.8829 42.0945 33.9631C44.8784 36.9514 48.9104 37.3869 51.0211 37.3869C51.3353 37.3869 51.5912 37.3769 51.8106 37.3653C51.7292 40.3585 51.528 43.2654 51.189 46.1157C49.4522 46.5778 47.7952 47.4487 46.326 48.7367C45.5781 47.0249 44.6407 45.3828 43.4158 44.0316C38.2702 38.3542 30.605 40.0195 30.2809 40.0926L29.799 40.199L29.8206 40.6909C29.8305 40.9319 29.9967 44.1712 30.9657 47.9672C30.04 48.4193 29.1724 48.9744 28.3995 49.6309C26.0495 51.6336 24.7714 54.3111 24.798 57.1714C24.8212 59.6461 25.6074 61.8383 26.8838 63.61C22.7786 65.877 19.5809 69.6431 18.8064 74.684C18.1134 79.1997 19.0591 83.6406 21.4723 87.1856C21.8512 87.7407 22.2734 88.2526 22.7138 88.7462C22.6158 88.9706 22.4928 89.1833 22.4147 89.416C21.7382 91.452 21.9443 93.6325 22.9964 95.5572C24.0484 97.4851 25.8583 98.8662 28.0904 99.4496C28.8217 99.6407 29.5746 99.7354 30.3225 99.7354C31.7817 99.7354 33.231 99.3781 34.4975 98.6851C36.3772 97.6596 37.6636 96.2436 38.2785 94.5948C38.5112 96.0026 39.1261 97.2906 40.0968 98.2912C41.3416 99.5759 43.0368 100.281 44.8784 100.281C44.9016 100.281 44.9232 100.281 44.9465 100.281C45.6911 100.274 46.4074 100.113 47.0988 99.8701C47.9381 101.707 48.9902 103.467 50.3397 104.941C54.2737 109.242 59.5373 110 62.7599 110C64.407 110 65.5205 109.801 65.6485 109.777L66.1471 109.683L66.1288 109.176C66.1138 108.735 65.7166 99.5044 61.5549 92.9345C62.597 92.6669 63.6092 92.2963 64.5549 91.8043C67.7443 90.1423 69.9182 87.4216 70.6744 84.1441C71.3774 81.096 71.0583 78.1559 69.9365 75.6646C70.224 75.5815 70.5198 75.5167 70.8007 75.4186C79.6459 72.3323 81.7899 63.0649 81.878 62.6727L81.9877 62.1707L81.5107 61.9979ZM64.4219 29.027C61.3705 31.5499 56.5473 31.7876 54.508 31.7726L67.9537 20.6554C67.9138 22.3291 67.4933 26.4891 64.4219 29.027ZM67.4966 20.4228L65.2429 22.2875L64.9305 20.5457C65.9776 20.4377 66.8601 20.4178 67.4966 20.4228ZM64.4618 20.6039L64.8258 22.6316L63.2834 23.9063L62.6618 20.9164C63.2818 20.7817 63.8851 20.6754 64.4618 20.6039ZM62.2015 21.0178L62.8729 24.2454L60.9865 25.8043L59.9295 21.7839C60.6724 21.4615 61.4353 21.2056 62.2015 21.0178ZM57.5844 23.1667C58.1628 22.6881 58.8176 22.3158 59.4957 21.9884L60.586 26.1367L58.5667 27.8071L57.5562 23.195C57.5661 23.1867 57.5728 23.1767 57.5844 23.1667ZM57.1589 23.5889L58.1578 28.1444L56.2764 29.7001L55.3557 26.0686C55.7928 25.1861 56.3811 24.3384 57.1589 23.5889ZM55.0366 26.7267L55.8742 30.0325L54.0526 31.5383C54.0792 30.5311 54.2454 28.6447 55.0366 26.7267ZM39.6314 23.4243L41.6275 25.5667L39.904 25.9838C39.7344 24.9451 39.663 24.0642 39.6314 23.4243ZM39.9887 26.4475L41.9948 25.9639L43.3576 27.4281L40.4076 28.2259C40.2364 27.6159 40.0951 27.0193 39.9887 26.4475ZM40.5372 28.6779L43.7216 27.817L45.3903 29.607L41.438 30.9017C41.0707 30.1787 40.7715 29.4325 40.5372 28.6779ZM42.9554 33.1604C42.4452 32.6119 42.0347 31.9787 41.6674 31.3222L45.7443 29.9876L47.5309 31.9056L42.9853 33.187C42.977 33.177 42.9654 33.1704 42.9554 33.1604ZM43.4042 33.5609L47.8932 32.2961L49.5569 34.0811L45.9836 35.2146C45.0778 34.8307 44.1969 34.2922 43.4042 33.5609ZM46.6584 35.4938L49.9126 34.4617L51.5247 36.1919C50.5159 36.2285 48.6195 36.1736 46.6584 35.4938ZM39.8375 22.9573C41.5111 22.9091 45.6878 23.0753 48.4035 25.9888C51.1026 28.8857 51.6278 33.6806 51.7308 35.7215L39.8375 22.9573ZM74.6998 61.4112C77.01 61.8533 78.9113 62.3951 80.0282 62.7458L74.3973 64.7103L74.6998 61.4112ZM70.6611 60.8378C71.9093 60.9525 73.1126 61.1237 74.2344 61.3264L73.9087 64.8798L70.3436 66.1246L70.6611 60.8378ZM66.3515 60.7298C67.6396 60.6683 68.9326 60.6965 70.1907 60.7946L69.8617 66.2925L65.592 67.7817L65.5953 63.1546C65.9194 62.3669 66.1737 61.5541 66.3515 60.7298ZM69.0922 52.1488C68.1431 52.8452 67.0761 53.3953 65.9709 53.879C65.4723 52.4779 64.7161 51.1882 63.6923 50.0763C63.2053 49.5478 62.6851 49.0808 62.1516 48.647L75.0903 39.1602C75.0854 41.2909 74.61 48.1052 69.0922 52.1488ZM74.5236 38.994L70.0711 42.2582L69.4495 39.1868C71.5968 38.9824 73.4283 38.9691 74.5236 38.994ZM68.9775 39.2334L69.6539 42.564L66.8219 44.6399L65.6701 39.732C66.8102 39.5076 67.9254 39.3447 68.9775 39.2334ZM65.208 39.8267L66.4097 44.9424L63.0142 47.432L61.1145 41.025C62.4491 40.5081 63.8369 40.1175 65.208 39.8267ZM60.6741 41.1962L62.6103 47.7262L61.7777 48.3378C60.5893 47.4404 59.3063 46.7822 57.9816 46.3434L57.1839 43.1142C58.2426 42.3397 59.4292 41.7114 60.6741 41.1962ZM56.7783 43.4399L57.4548 46.1756C56.4891 45.903 55.5069 45.7601 54.523 45.7318C55.1496 44.9158 55.8941 44.1429 56.7783 43.4399ZM53.2034 1.73514C54.4416 2.85699 57.3185 5.89348 57.2337 9.87731C57.1506 13.8362 54.1839 17.6422 52.8344 19.1779L53.2034 1.73514ZM52.728 1.92627L52.6665 4.85306L51.1408 3.95226C51.7441 3.08635 52.3059 2.40493 52.728 1.92627ZM50.8799 4.34283L52.6549 5.39322L52.6117 7.39095L49.9408 5.90844C50.2433 5.35167 50.5574 4.82647 50.8799 4.34283ZM49.7165 6.32394L52.6 7.92445L52.5485 10.3726L48.814 8.54605C49.055 7.77155 49.3591 7.02697 49.7165 6.32394ZM48.3287 11.2252C48.3436 10.474 48.4916 9.73438 48.6844 9.00642L52.5369 10.8911L52.482 13.5121L48.332 11.2651C48.332 11.2501 48.3287 11.2385 48.3287 11.2252ZM48.3719 11.8235L52.4721 14.0423L52.4206 16.4821L49.0666 14.8052C48.686 13.8994 48.4301 12.9005 48.3719 11.8235ZM49.3541 15.4766L52.4089 17.004L52.3591 19.3674C51.6128 18.6926 50.2899 17.3331 49.3541 15.4766ZM47.2018 50.1677C49.2162 48.3063 51.6859 47.3905 54.1839 47.3905C57.144 47.3905 60.1422 48.6769 62.4724 51.2031C64.4186 53.3139 65.2878 56.1726 64.9205 59.2539C64.5665 62.2223 63.0807 65.1075 60.8419 67.1717C60.1954 67.7667 59.5256 68.2587 58.8425 68.6675C57.0243 68.6908 55.2194 69.1279 53.5225 69.9589C52.487 69.8525 51.4616 69.5484 50.4644 69.0431C49.2976 66.5767 47.4295 64.5989 44.9349 63.2344C42.9006 58.8268 43.6485 53.4469 47.2018 50.1677ZM65.1233 64.1768L65.12 67.9462L61.9771 69.0431C61.8757 69.0165 61.7793 68.9816 61.6746 68.9567C61.5616 68.9301 61.4486 68.9202 61.3356 68.8969C61.545 68.7257 61.7627 68.5794 61.9671 68.39C63.2635 67.195 64.3322 65.7507 65.1233 64.1768ZM51.4616 71.2071C51.4084 71.2453 51.3569 71.2852 51.3037 71.3251C51.2887 71.2636 51.2771 71.1988 51.2588 71.1373C51.3269 71.1589 51.3934 71.1871 51.4616 71.2071ZM42.5416 44.821C43.7715 46.1772 44.7005 47.8758 45.4285 49.6475C45.1642 49.9334 44.8917 50.2126 44.6606 50.5201C43.0152 48.0603 40.2596 46.6376 36.6448 46.6376H36.5135C36.3955 46.6393 36.2775 46.6526 36.1595 46.6559L31.1552 41.1347C32.9967 40.8821 38.6458 40.5214 42.5416 44.821ZM35.5545 46.6908C34.3645 46.7938 33.1895 47.0631 32.0759 47.4836C31.9895 47.1362 31.9097 46.7972 31.8366 46.4648L34.4742 45.4991L35.5545 46.6908ZM34.1335 45.1235L31.7369 46.0011C31.3745 44.2476 31.1834 42.7319 31.0887 41.7629L34.1335 45.1235ZM26.4616 57.1548C26.44 54.7964 27.5104 52.5726 29.4799 50.894C31.3862 49.2686 33.9556 48.3245 36.5301 48.2996H36.6448C39.9621 48.2996 42.3787 49.6674 43.6618 52.0724C42.0147 55.1471 41.7438 58.8633 42.8008 62.2721C41.6939 61.8682 40.504 61.5525 39.2192 61.3547C39.0896 61.3347 38.955 61.3298 38.8253 61.3131C40.4109 60.158 41.4446 58.2966 41.4264 56.1958C41.3948 52.7538 38.5677 49.9749 35.1141 49.9749C35.0941 49.9749 35.0742 49.9749 35.0542 49.9749C33.3673 49.9915 31.7884 50.658 30.6067 51.8563C29.425 53.053 28.7818 54.6369 28.7984 56.3155C28.8134 57.9941 29.4848 59.5647 30.6898 60.7397C31.0754 61.1154 31.5108 61.4145 31.9646 61.6755C30.7496 61.9563 29.563 62.3486 28.4245 62.8488C27.2262 61.3131 26.4816 59.3719 26.4616 57.1548ZM37.7434 61.2001C36.1661 61.0888 34.5606 61.1852 32.9767 61.466C32.3019 61.1935 31.6804 60.7896 31.1452 60.2677C30.0682 59.2157 29.4666 57.8096 29.4533 56.3088C29.44 54.808 30.0134 53.3903 31.0721 52.32C32.1308 51.2464 33.5451 50.6497 35.0559 50.6347C35.0742 50.6347 35.0908 50.6347 35.1091 50.6347C38.2021 50.6347 40.7333 53.1211 40.7632 56.2041C40.7832 58.3714 39.5466 60.2461 37.7434 61.2001ZM22.1919 71.8819C22.4196 70.4027 23.0396 69.0598 23.9287 67.9163C24.8279 66.9689 25.8567 66.1479 26.9785 65.4549C28.0588 64.9463 29.2206 64.6637 30.4122 64.6637C30.8261 64.6637 31.2416 64.6953 31.6571 64.7601C36.1661 65.4532 39.2591 69.7777 38.5478 74.3965C38.2037 76.6369 37.0287 78.6113 35.2387 79.9576C33.4504 81.3021 31.2648 81.8622 29.081 81.5198C26.8971 81.1841 24.9791 79.9974 23.6778 78.1792C22.3764 76.3576 21.8479 74.1222 22.1919 71.8819ZM28.5109 97.8408C26.7259 97.3771 25.2866 96.2818 24.4556 94.7594C23.6263 93.2453 23.4617 91.5334 23.9919 89.9396C24.5171 88.3557 25.6755 87.0094 27.2528 86.1485C28.0788 85.6981 28.9879 85.4721 29.9303 85.4721C30.6798 85.4721 31.4477 85.615 32.2072 85.9042C32.887 86.1635 33.5169 86.5524 34.1019 87.0045C34.0205 86.9779 33.9473 86.9347 33.8642 86.9114C32.4698 86.5108 30.9956 86.6804 29.7125 87.3801C28.4311 88.0798 27.4954 89.2299 27.0749 90.6193C26.6561 92.0104 26.8057 93.473 27.4971 94.7378C28.1885 96.0042 29.3386 96.92 30.7363 97.3189C31.2333 97.4618 31.7385 97.5316 32.2438 97.5316C32.6028 97.5316 32.9568 97.4668 33.3108 97.397C31.8366 98.0801 30.1214 98.2629 28.5109 97.8408ZM37.0187 92.7749C36.7944 94.1993 35.9451 95.5206 34.5706 96.2718C33.4421 96.8868 32.1424 97.0297 30.9175 96.6857C29.6909 96.335 28.6821 95.5322 28.0771 94.4237C27.4705 93.3134 27.3392 92.032 27.7082 90.8105C28.0771 89.5889 28.9015 88.5751 30.03 87.9585C30.7579 87.5612 31.554 87.3601 32.3585 87.3601C32.8022 87.3601 33.2476 87.4216 33.6831 87.5446C34.5357 87.7873 35.2703 88.2609 35.8503 88.8925C35.965 89.0654 36.0963 89.2282 36.196 89.411C36.8243 90.5612 37.1002 91.7046 37.0187 92.7749ZM37.6553 88.6116C36.5982 86.6754 34.8265 85.1214 32.7989 84.3502C30.6266 83.5259 28.373 83.6455 26.4567 84.6909C25.3016 85.3208 24.3575 86.1868 23.618 87.1856C23.3587 86.8765 23.0778 86.5873 22.8484 86.2499C20.6729 83.0522 19.8203 79.0351 20.4502 74.9366C20.6729 73.484 21.1233 72.1494 21.7532 70.9378C21.6834 71.2204 21.5837 71.4913 21.5404 71.7821C21.1698 74.192 21.7399 76.6003 23.1426 78.5631C24.5487 80.5276 26.6229 81.8074 28.9829 82.1713C29.4333 82.2395 29.8837 82.2744 30.3308 82.2744C32.2305 82.2744 34.0753 81.6578 35.6376 80.4827C37.5655 79.0335 38.832 76.9078 39.2026 74.4945C39.9671 69.5151 36.6281 64.8532 31.7585 64.1053C31.1036 64.0056 30.4521 63.9973 29.8073 64.0422C31.9031 63.2311 34.1634 62.8056 36.3905 62.8056C37.2564 62.8056 38.119 62.8688 38.9633 62.9984C47.1753 64.2615 51.292 70.1351 49.9741 78.7094C49.5203 81.6644 48.1691 84.4666 46.198 86.7734C45.9986 86.7568 45.8107 86.7236 45.603 86.7186C43.7316 86.7352 41.8601 87.4266 40.469 88.6133C39.5799 89.3712 38.9649 90.2919 38.586 91.2908C38.4414 90.4049 38.1439 89.5058 37.6553 88.6116ZM41.202 91.5168C41.3183 91.7595 41.5759 91.9672 41.8718 92.062C41.9998 92.1035 42.1327 92.1318 42.2673 92.1583C42.3155 92.1667 42.3621 92.1766 42.4069 92.1866C42.2241 92.3096 42.033 92.4376 41.8734 92.6187C41.566 92.9644 41.4397 93.5328 41.807 93.9068C42.1693 94.2757 42.7743 94.1943 43.1615 93.93C43.2363 93.8785 43.3061 93.822 43.3709 93.7622C43.3726 93.7805 43.3759 93.7971 43.3809 93.8137C43.4407 94.073 43.6319 94.289 43.9061 94.407C44.049 94.4669 44.2019 94.4985 44.3548 94.4985C44.5393 94.4985 44.7221 94.4536 44.875 94.3622C45.3404 94.0896 45.5531 93.4913 45.362 92.883C45.357 92.8664 45.3504 92.8481 45.3454 92.8281C45.3919 92.8281 45.4484 92.8331 45.4883 92.8364C45.7443 92.8481 46.1132 92.8015 46.3509 92.5805C46.4888 92.4542 46.5636 92.2896 46.5636 92.1102C46.567 91.6647 46.1282 91.3938 45.7127 91.3656C45.6246 91.3622 45.5348 91.3639 45.4434 91.3672C45.47 91.3406 45.495 91.3157 45.5182 91.2858C45.7692 90.99 45.8024 90.6044 45.6013 90.3501C45.377 90.0659 44.9781 90.0509 44.6972 90.1789C44.6872 90.1839 44.6789 90.1889 44.6689 90.1922C44.6108 90.0409 44.5177 89.893 44.3665 89.7817C44.0008 89.5041 43.4258 89.5706 43.11 89.9246C42.9704 90.0808 42.8873 90.2753 42.8657 90.4814C42.3804 90.3285 41.9433 90.3434 41.5859 90.5296C41.5028 90.5745 41.4363 90.6293 41.3732 90.6875C41.9532 89.7767 42.9687 89.1634 44.1321 89.1518C44.1421 89.1518 44.1521 89.1518 44.162 89.1518C45.9703 89.1518 47.4511 90.606 47.4678 92.406C47.4844 94.2159 46.0152 95.7017 44.1936 95.72C44.1836 95.72 44.1737 95.72 44.1637 95.72C42.3554 95.72 40.8762 94.2658 40.8596 92.4658C40.8563 91.9822 40.9643 91.5268 41.1488 91.1113C41.1289 91.2476 41.1372 91.3855 41.202 91.5168ZM43.6069 90.9085C43.6019 90.8686 43.5903 90.8304 43.5704 90.7938C43.4956 90.6492 43.5072 90.4697 43.6019 90.365C43.6884 90.2653 43.8795 90.2387 43.9726 90.3085C44.0856 90.3933 44.1055 90.616 44.1089 90.8437L44.1221 91.7561L44.6955 91.0465C44.7836 90.9368 44.875 90.8238 44.9764 90.7772C45.0213 90.7556 45.0728 90.7573 45.0761 90.7407C45.0761 90.7623 45.0579 90.8121 45.0163 90.8603C44.9698 90.9135 44.9149 90.9634 44.8617 91.0116C44.7737 91.0897 44.6756 91.1794 44.5925 91.2924C44.4462 91.4902 44.4479 91.7312 44.5991 91.8891C44.6955 91.9888 44.8102 92.0104 44.8667 92.0221C45.0529 92.057 45.234 92.042 45.3903 92.032C45.485 92.0254 45.5781 92.0171 45.6711 92.0237C45.7941 92.032 45.8905 92.0902 45.9105 92.0902C45.8822 92.1284 45.7326 92.1916 45.5315 92.1783C45.3304 92.1667 44.9814 92.1367 44.777 92.4093C44.5925 92.652 44.6806 92.9262 44.7487 93.1373C44.8185 93.36 44.7604 93.6658 44.541 93.7954C44.4429 93.8503 44.2883 93.8553 44.1654 93.8021C44.1288 93.7855 44.039 93.7406 44.0224 93.6658C44.0091 93.6076 44.0208 93.5179 44.0341 93.4231C44.054 93.2736 44.0789 93.0891 44.0208 92.893L43.8828 92.4376L43.5055 92.7284C43.3693 92.8315 43.2512 92.9528 43.1349 93.0741C43.0186 93.1921 42.9105 93.3051 42.7892 93.3866C42.613 93.5062 42.3654 93.5362 42.2773 93.4481C42.2009 93.3683 42.2607 93.1772 42.3671 93.0592C42.4701 92.9412 42.618 92.8414 42.7743 92.7367C42.8806 92.6653 42.9853 92.5938 43.0851 92.514C43.3576 92.2946 43.3078 92.0603 43.2712 91.9639C43.2163 91.8276 43.1083 91.7611 43.0551 91.7279C42.8391 91.5999 42.6014 91.555 42.392 91.5135C42.2856 91.4919 42.1776 91.4736 42.0729 91.4387C41.9349 91.3938 41.8269 91.2991 41.7887 91.2027C41.7937 91.1894 41.8236 91.1528 41.8951 91.1146C42.2607 90.9185 42.7743 91.1179 43.1416 91.314C43.3028 91.4005 43.5022 91.344 43.5886 91.1794C43.6352 91.093 43.6385 90.9949 43.6069 90.9085ZM44.9349 98.6202C43.5521 98.6202 42.2341 98.105 41.2934 97.1361C40.361 96.1738 39.8408 94.8574 39.8275 93.4281C39.8209 92.6885 40.0236 91.9755 40.3826 91.3207C40.2729 91.688 40.1965 92.0703 40.2015 92.4725C40.2214 94.6347 41.9964 96.3799 44.1654 96.3799C44.177 96.3799 44.1886 96.3799 44.2003 96.3799C46.3841 96.3582 48.1475 94.5732 48.1276 92.3993C48.1076 90.3218 46.4623 88.6449 44.408 88.5169C44.8069 88.4371 45.2108 88.3856 45.6179 88.3823C45.6396 88.3823 45.6628 88.3823 45.6844 88.3823C47.0888 88.3823 48.2439 88.8044 49.0301 89.6055C49.8212 90.4116 50.245 91.6032 50.2583 93.0475C50.2716 94.4519 49.7065 95.863 48.7076 96.9217C47.6888 98.0053 46.3476 98.6069 44.9349 98.6202ZM51.2123 104.148C49.9591 102.779 48.9769 101.12 48.1874 99.3798C48.8107 99.0291 49.404 98.6086 49.9192 98.0635C50.8632 97.0629 51.4998 95.8098 51.7707 94.4935L64.7759 108.707C62.6519 108.931 55.831 109.196 51.2123 104.148ZM51.8388 92.0902C52.6782 92.4824 53.5756 92.8198 54.5778 93.0508C55.6482 93.2968 56.7484 93.4198 57.8487 93.4198C58.6847 93.4198 59.514 93.3251 60.335 93.1871C60.6392 93.6425 60.9284 94.1095 61.1926 94.5932L54.9086 97.2258L51.8455 93.8769C51.8787 93.5943 51.9253 93.3134 51.922 93.0309C51.9186 92.7035 51.8771 92.3977 51.8388 92.0902ZM64.879 108.125L61.1527 104.052L64.1394 103.101C64.5748 105.217 64.7842 107.033 64.879 108.125ZM64.0413 102.639L60.8037 103.671L58.4337 101.08L63.192 99.4014C63.5394 100.512 63.8169 101.604 64.0413 102.639ZM63.0424 98.9543L58.0863 100.701L55.246 97.5964L61.407 95.0153C62.0652 96.2851 62.6037 97.6214 63.0424 98.9543ZM69.0573 83.7735C68.4124 86.5707 66.541 88.9008 63.7903 90.3335C61.1411 91.7163 57.9168 92.1135 54.9534 91.4304C53.4892 91.093 52.2327 90.5545 51.1824 89.8515C50.9214 89.3329 50.6156 88.8476 50.2184 88.4438C49.6201 87.8321 48.8772 87.405 48.0345 87.1225C49.8827 84.7258 51.1641 81.9187 51.6178 78.962C51.9369 76.8812 51.9402 74.9416 51.6793 73.1516C52.0532 72.8242 52.4422 72.5134 52.8577 72.2342C55.4454 70.5057 58.4403 69.914 61.3023 70.5755C67.1476 71.9267 70.4816 77.5992 69.0573 83.7735ZM70.4168 74.3084C70.0827 74.4247 69.7287 74.4912 69.3847 74.5843C67.957 72.1195 65.6717 70.2132 62.7682 69.2675L80.5534 63.0616C79.9135 65.154 77.3673 71.8835 70.4168 74.3084Z" fill="url(#paint0_linear)"/>
<path d="M61.4884 76.3094C59.602 75.8723 57.6558 76.2196 56.0071 77.285C54.3601 78.3487 53.2083 80.0007 52.7612 81.9369C52.3141 83.8732 52.6266 85.8626 53.6421 87.5396C54.6576 89.2199 56.2564 90.3833 58.1428 90.8187C58.673 90.9417 59.2098 91.0015 59.7416 91.0015C61.1012 91.0015 62.4391 90.6076 63.6241 89.8414C65.2695 88.7778 66.4229 87.1274 66.87 85.1911C67.3171 83.2549 67.0046 81.2655 65.9891 79.5885C64.972 77.9082 63.3748 76.7448 61.4884 76.3094ZM66.2268 85.0416C65.8179 86.8099 64.7676 88.3174 63.2668 89.288C61.7693 90.2536 60.0026 90.5694 58.2891 90.1755C56.5788 89.7816 55.1279 88.7246 54.2038 87.1972C53.2781 85.6681 52.9939 83.8532 53.4027 82.0865C53.8099 80.3181 54.862 78.809 56.3628 77.8401C57.4381 77.1437 58.6547 76.7864 59.8896 76.7864C60.3732 76.7864 60.8585 76.8412 61.3405 76.9526C63.0507 77.3465 64.5016 78.4035 65.4257 79.9309C66.3498 81.4599 66.634 83.2748 66.2268 85.0416Z" fill="url(#paint1_linear)"/>
<path d="M63.9316 83.9696C64.5465 83.5309 64.9737 82.6799 64.5549 81.9636C64.1327 81.2373 63.1255 81.1509 62.3926 81.4401C62.0386 81.5797 61.7278 81.7791 61.4286 81.9736C61.3954 81.9952 61.3621 82.0151 61.3306 82.0367C61.4186 81.8057 61.515 81.5464 61.5184 81.2622C61.5234 80.8351 61.304 80.4246 60.9167 80.1354C60.4597 79.798 59.8663 79.685 59.3594 79.8412C58.5002 80.1088 57.9201 81.0229 57.9816 82.0118L57.9899 82.1148C58.0032 82.2894 58.0198 82.5087 57.9467 82.5719C57.847 82.65 57.5462 82.5536 57.3301 82.4855C56.9362 82.3542 56.3096 82.296 55.8476 82.5519C55.6016 82.6882 55.4354 82.8976 55.3706 83.1569C55.2127 83.7985 55.7794 84.3868 56.416 84.5862C56.6321 84.6544 56.8581 84.6926 57.0841 84.7308C57.3052 84.7657 57.5146 84.8023 57.7041 84.8522C57.5861 84.9419 57.4481 85.0184 57.3018 85.0981C57.139 85.1879 56.9761 85.2776 56.8298 85.389C56.421 85.6948 56.1135 86.2333 56.3445 86.7502C56.5656 87.2405 57.1739 87.4067 57.6293 87.3086C57.7722 87.277 57.9068 87.2288 58.0298 87.1673C58.0099 87.5529 58.0714 87.9767 58.3522 88.3258C58.6182 88.6532 59.0519 88.8277 59.4907 88.8277C59.8015 88.8277 60.1123 88.7413 60.3699 88.5618C60.7588 88.2892 61.0015 87.8438 61.0563 87.3585C61.9571 88.0133 62.8264 88.2476 63.6025 88.0449C63.9615 87.9501 64.2407 87.769 64.4053 87.5197C64.5648 87.2804 64.6147 86.9978 64.5499 86.6987C64.4551 86.2682 64.1244 85.8327 63.6856 85.5618C63.4779 85.4322 63.2502 85.3275 63.0258 85.2228C62.7183 85.0815 62.4275 84.9469 62.1948 84.7657C62.3909 84.671 62.5953 84.5929 62.7998 84.5164C63.1837 84.3702 63.5793 84.2189 63.9316 83.9696ZM61.9089 84.1757C61.4768 84.3818 61.4652 84.6826 61.4818 84.8023C61.5034 84.9702 61.6015 85.0865 61.6862 85.1713C61.9987 85.4787 62.3826 85.6549 62.7532 85.8261C62.9543 85.9192 63.1571 86.0106 63.3433 86.1286C63.6258 86.3031 63.8535 86.5906 63.9083 86.8432C63.9349 86.9662 63.9183 87.0693 63.8585 87.159C63.7853 87.2687 63.6358 87.3601 63.438 87.41C62.5339 87.656 61.5699 86.9912 60.92 86.3978C60.7854 86.2748 60.5777 86.2832 60.4547 86.4194C60.3782 86.5042 60.3533 86.6156 60.3782 86.7186C60.3666 86.7685 60.3649 86.8216 60.3782 86.8732C60.4846 87.3202 60.3267 87.7956 59.996 88.0283C59.6586 88.2659 59.1101 88.2111 58.8708 87.9169C58.5966 87.5795 58.6913 87.036 58.7993 86.5541L59.0037 85.6483L58.2741 86.2217C58.0315 86.4128 57.7788 86.6106 57.4996 86.6704C57.2753 86.7219 57.0143 86.6338 56.9495 86.4876C56.873 86.3147 57.0343 86.0688 57.2271 85.9242C57.35 85.8311 57.4863 85.758 57.6226 85.6832C57.8187 85.5751 58.0215 85.4621 58.2043 85.3026C58.4503 85.0882 58.5267 84.799 58.3938 84.568C58.3074 84.4167 58.1661 84.3519 58.0963 84.322C57.7988 84.1874 57.4913 84.1375 57.1938 84.0876C56.9994 84.0544 56.8049 84.0245 56.6171 83.9647C56.283 83.8616 55.9523 83.5708 56.0138 83.3231C56.0271 83.2733 56.057 83.1985 56.17 83.1353C56.3877 83.0173 56.7899 83.0073 57.1473 83.1253C57.5063 83.2417 57.9966 83.4012 58.3738 83.0821C58.7046 82.8012 58.673 82.3791 58.6497 82.0716L58.6431 81.9769C58.6082 81.4002 58.9157 80.6805 59.5589 80.4794C59.8613 80.383 60.2386 80.4611 60.5245 80.6722C60.6525 80.7686 60.8652 80.9697 60.8619 81.2606C60.8602 81.4401 60.7854 81.6345 60.7056 81.8373C60.6059 82.0982 60.4912 82.3941 60.5095 82.7231L60.5361 83.2051L60.9766 83.0057C61.2707 82.8711 61.535 82.6999 61.7909 82.5353C62.0751 82.3508 62.3444 82.1763 62.6369 82.0617C63.1106 81.8788 63.7637 81.9171 63.9881 82.3043C64.1992 82.6633 63.925 83.1719 63.551 83.4395C63.2685 83.6422 62.9278 83.7719 62.5688 83.9098C62.3427 83.9863 62.12 84.0727 61.9089 84.1757Z" fill="url(#paint2_linear)"/>
<path d="M25.5973 71.6109C25.8932 71.7655 26.2023 71.8802 26.5031 71.9932C26.9785 72.1694 27.4272 72.3389 27.7746 72.6331C27.7845 72.6414 27.7929 72.648 27.7995 72.6547C27.7779 72.6746 27.743 72.6996 27.6898 72.7311C27.4339 72.8791 27.163 73.007 26.892 73.1333C26.4001 73.366 25.8882 73.6053 25.4528 73.9693C24.6965 74.5942 24.2594 75.7394 24.8345 76.5737C25.4395 77.4529 26.7358 77.4595 27.6466 77.0224C28.0987 76.8047 28.4892 76.5089 28.8665 76.223C29.0028 76.12 29.1358 76.0202 29.2704 75.9238C29.2454 76.0169 29.2172 76.1117 29.1873 76.2081C29.0859 76.5421 28.9795 76.8895 29.0045 77.2701C29.0377 77.8052 29.3518 78.3022 29.8704 78.6296C30.256 78.8756 30.7014 79.0035 31.1368 79.0035C31.3978 79.0035 31.6554 78.957 31.8914 78.8639C32.97 78.4335 33.6282 77.2019 33.4537 75.9322L33.4337 75.7959C33.3905 75.5083 33.3456 75.2108 33.4802 75.0795C33.6481 74.9117 34.0653 75.0147 34.4226 75.1045C34.9445 75.2325 35.7555 75.2524 36.319 74.8818C36.6098 74.6906 36.7926 74.4197 36.8475 74.0956C36.9854 73.2879 36.2109 72.6048 35.3849 72.4087C35.0874 72.3389 34.7882 72.3123 34.4974 72.2874C34.1484 72.2558 33.8176 72.2259 33.4603 72.1046C33.4686 72.0929 33.4802 72.0796 33.4935 72.068C33.6664 71.8935 33.8824 71.7522 34.1135 71.601C34.3179 71.468 34.5207 71.335 34.7018 71.1755C35.1855 70.755 35.5229 70.0553 35.1905 69.4404C34.8713 68.852 34.1002 68.7107 33.5401 68.872C33.2924 68.9434 33.0681 69.0631 32.867 69.1994C32.8869 68.6027 32.7872 68.0077 32.3501 67.544C31.7235 66.8809 30.5169 66.8293 29.774 67.441C29.2538 67.8664 28.9795 68.5445 29.0144 69.2459C27.7031 68.3866 26.4782 68.1207 25.4478 68.4781C25.137 68.5828 24.7165 68.7955 24.4821 69.2093C24.3076 69.5185 24.2727 69.8741 24.3808 70.2381C24.5403 70.7783 25.0073 71.3035 25.5973 71.6109ZM25.0572 69.5351C25.1602 69.3539 25.373 69.1994 25.6605 69.1013C26.9004 68.6792 28.2964 69.4802 29.2521 70.2298C29.3967 70.3395 29.6028 70.3179 29.7158 70.1733C29.7922 70.0752 29.8055 69.9489 29.759 69.8426C29.774 69.7861 29.7723 69.7229 29.754 69.6631C29.5513 69.0315 29.7308 68.3268 30.1911 67.9529C30.6715 67.5573 31.4742 67.5789 31.8698 67.9977C32.3052 68.4598 32.2321 69.2326 32.1307 69.919L31.9944 70.8381L32.6792 70.2115C32.9816 69.934 33.324 69.6215 33.7212 69.5052C34.0354 69.4121 34.4675 69.4919 34.6087 69.7545C34.76 70.032 34.5506 70.4293 34.2664 70.6786C34.1068 70.8165 33.9273 70.9312 33.7478 71.0492C33.5002 71.2121 33.2426 71.3799 33.0199 71.606C32.7456 71.8852 32.6825 72.2142 32.852 72.4685C32.9517 72.6165 33.1013 72.6846 33.221 72.7278C33.6215 72.8741 34.0337 72.909 34.4326 72.9472C34.7118 72.9721 34.9761 72.9954 35.2287 73.0536C35.7489 73.1749 36.2608 73.5788 36.191 73.9876C36.1677 74.1289 36.0879 74.2419 35.9516 74.3316C35.6425 74.5327 35.0791 74.5909 34.5539 74.4596C34.0869 74.3499 33.4453 74.187 33.0132 74.6092C32.6376 74.9765 32.7174 75.5083 32.7756 75.8956L32.7938 76.0236C32.9052 76.8363 32.5412 77.8933 31.6421 78.2507C31.2149 78.4202 30.6532 78.3504 30.2194 78.0761C30.0216 77.9498 29.6859 77.6723 29.6593 77.2302C29.6427 76.9692 29.7274 76.6934 29.8155 76.4008C29.9252 76.0352 30.0399 75.6579 29.9867 75.2408L29.9252 74.7621L29.5014 74.9948C29.1258 75.1992 28.7901 75.4535 28.4643 75.7011C28.097 75.9787 27.7496 76.243 27.3574 76.4308C26.6976 76.7432 25.7502 76.7465 25.373 76.2031C25.0173 75.6845 25.353 74.9067 25.8683 74.4779C26.2405 74.1671 26.6909 73.9577 27.1679 73.7333C27.4538 73.597 27.7413 73.4624 28.0156 73.3045C28.4926 73.0286 28.5059 72.7079 28.471 72.5417C28.4277 72.3289 28.2665 72.191 28.1967 72.1328C27.7596 71.7638 27.2361 71.5677 26.7292 71.3783C26.435 71.2686 26.1558 71.1639 25.8982 71.0292C25.4744 70.8082 25.117 70.416 25.009 70.0536C24.9575 69.8592 24.9724 69.6863 25.0572 69.5351Z" fill="url(#paint3_linear)"/>
<path d="M57.0559 65.985C57.1739 65.9917 57.2919 65.995 57.4082 65.995C59.1982 65.995 60.8918 65.3369 62.2081 64.1219C65.1017 61.4544 65.2546 56.8939 62.5471 53.9571C59.8397 51.0237 55.2808 50.8059 52.3889 53.4751C50.9862 54.7682 50.1785 56.5382 50.1153 58.4595C50.0522 60.3774 50.7402 62.2173 52.0516 63.6383C53.3629 65.0593 55.1362 65.8953 57.0559 65.985ZM52.8344 53.9588C54.0643 52.8236 55.6265 52.2652 57.1922 52.2652C58.9688 52.2652 60.7522 52.9865 62.0602 54.4042C64.5216 57.0717 64.387 61.2151 61.7594 63.6383C60.4863 64.81 58.8309 65.4382 57.0858 65.3269C55.3423 65.2438 53.7252 64.4842 52.5319 63.1912C51.3386 61.8982 50.7136 60.2262 50.7702 58.4811C50.83 56.7376 51.5613 55.1321 52.8344 53.9588Z" fill="url(#paint4_linear)"/>
<path d="M54.769 59.3553L54.8587 59.4068C55.0116 59.4949 55.2011 59.6046 55.2111 59.701C55.2244 59.8306 54.9684 60.0251 54.7939 60.1597C54.4632 60.414 54.061 60.8976 54.0128 61.4245C53.9862 61.7054 54.0676 61.9597 54.2455 62.1574C54.6859 62.6511 55.4903 62.5181 56.0155 62.0993C56.1933 61.9597 56.3512 61.7951 56.5091 61.6306C56.6653 61.4677 56.8133 61.3148 56.9595 61.1868C56.9678 61.3348 56.9529 61.4943 56.9363 61.6588C56.9196 61.8433 56.9014 62.0278 56.9097 62.2123C56.9313 62.7225 57.2038 63.281 57.7589 63.3774C57.8121 63.3873 57.8637 63.3923 57.9152 63.3923C58.3822 63.3923 58.7861 63.0217 58.9473 62.6328C59.0021 62.4965 59.037 62.3585 59.057 62.2223C59.3644 62.4549 59.7334 62.6427 60.1971 62.6078C60.9284 62.5464 61.5367 61.8433 61.5267 61.0738C61.5201 60.6001 61.2907 60.1481 60.9201 59.829C61.9672 59.4517 62.6536 58.8683 62.9228 58.1154C63.0475 57.7648 63.0558 57.434 62.9428 57.1565C62.8347 56.8905 62.6286 56.6894 62.3444 56.5731C61.9372 56.4069 61.3904 56.4352 60.9201 56.6446C60.6974 56.7443 60.4846 56.8706 60.2719 56.9969C59.9811 57.1698 59.7035 57.336 59.421 57.4274C59.4542 57.213 59.5057 56.9986 59.5556 56.7858C59.6503 56.3886 59.7484 55.9764 59.7401 55.5443C59.7251 54.7898 59.2631 53.9571 58.4354 53.8973C57.606 53.8624 56.9612 54.6219 56.7833 55.3864C56.6969 55.7604 56.6886 56.1277 56.6803 56.485C56.6803 56.5232 56.6786 56.5648 56.677 56.6014C56.5374 56.3986 56.3762 56.1742 56.1435 56.0113C55.7945 55.7687 55.3324 55.7105 54.8754 55.8734C54.3369 56.0579 53.9064 56.4867 53.7535 56.9936C53.4926 57.8578 53.9197 58.8501 54.769 59.3553ZM54.3867 57.1864C54.4781 56.8839 54.7557 56.613 55.0931 56.4983C55.2427 56.4501 55.5302 56.3903 55.7679 56.5515C55.9141 56.6545 56.0321 56.8241 56.1551 57.0036C56.3147 57.2346 56.4942 57.4939 56.7767 57.665L57.1889 57.9143L57.272 57.439C57.3285 57.1216 57.3351 56.8058 57.3418 56.5016C57.3501 56.1626 57.3584 55.8435 57.4282 55.536C57.5429 55.0391 57.9551 54.4956 58.3905 54.5554C58.806 54.5853 59.0753 55.0972 59.0836 55.5576C59.0902 55.9066 59.0055 56.259 58.9174 56.6329C58.8625 56.8656 58.8077 57.0966 58.7711 57.3326C58.7013 57.7897 58.9157 57.9725 59.0487 58.039C59.2049 58.1188 59.3644 58.0955 59.4675 58.0756C59.8963 57.9891 60.2603 57.7714 60.6126 57.562C60.8021 57.449 60.9916 57.3343 61.191 57.2479C61.4951 57.1116 61.8591 57.085 62.1001 57.1847C62.2165 57.2313 62.2946 57.3027 62.3345 57.4024C62.3843 57.5254 62.3727 57.6999 62.3045 57.8927C61.9921 58.7703 60.9051 59.1974 60.0475 59.4002C59.8714 59.4417 59.7617 59.6212 59.8032 59.7974C59.8298 59.9088 59.9096 59.9935 60.0093 60.0317C60.0425 60.0666 60.0841 60.0966 60.134 60.1165C60.5611 60.281 60.8652 60.6783 60.8702 61.0838C60.8752 61.4976 60.5229 61.9198 60.1439 61.9497C59.7251 61.9896 59.3146 61.6023 58.9755 61.2384L58.3423 60.5636L58.4055 61.4877C58.4254 61.7968 58.447 62.1159 58.339 62.3785C58.2509 62.5929 58.0348 62.7508 57.8753 62.7275C57.6908 62.6943 57.5811 62.4217 57.5695 62.1824C57.5628 62.0295 57.5778 61.8732 57.5927 61.7203C57.6144 61.4976 57.636 61.2683 57.606 61.024C57.5662 60.6965 57.375 60.4772 57.1058 60.4522C57.0925 60.4522 57.0792 60.4506 57.0659 60.4506C56.9279 60.4506 56.8166 60.5071 56.7318 60.5586C56.4543 60.7314 56.2382 60.9542 56.0305 61.1735C55.8942 61.3148 55.7596 61.4594 55.605 61.5791C55.3308 61.7968 54.9069 61.9115 54.7358 61.7154C54.7008 61.6788 54.656 61.6106 54.6676 61.481C54.6909 61.235 54.9119 60.896 55.2011 60.6749C55.487 60.4572 55.9174 60.1281 55.8659 59.6295C55.8227 59.1991 55.4554 58.988 55.1878 58.8334L55.1047 58.7852C54.6111 58.4927 54.189 57.8329 54.3867 57.1864Z" fill="url(#paint5_linear)"/>
<path d="M7.85546 81.3055C3.30821 81.5996 -0.281732 85.7497 0.0174299 90.3667C0.162025 92.6005 0.966437 94.4403 2.34424 95.6902C3.61235 96.8403 5.30926 97.4386 7.28539 97.4386C7.50145 97.4386 7.7225 97.4319 7.94521 97.417C12.7949 97.1045 16.6608 93.232 16.3865 88.9623C16.0841 84.3037 12.4227 81.0346 7.85546 81.3055ZM9.11692 94.9738C6.62225 95.1301 4.50485 93.2653 4.3453 90.8038C4.18575 88.3441 6.06714 86.2117 8.54021 86.0538C11.0183 85.8876 13.1523 87.7624 13.3118 90.2238C13.4714 92.6852 11.5883 94.8143 9.11692 94.9738ZM13.2803 93.0874C13.7789 92.2365 14.0381 91.2343 13.9716 90.1789C13.7888 87.3568 11.3174 85.2261 8.49866 85.3924C5.66327 85.5752 3.50432 88.0216 3.68714 90.8437C3.85999 93.5063 6.05717 95.5572 8.6848 95.6287C8.40226 95.6785 8.12138 95.7384 7.83884 95.7566C6.03888 95.8796 4.52646 95.4259 3.46111 94.4586C2.40906 93.5046 1.79245 92.052 1.67611 90.2587C1.43512 86.5408 4.31538 83.1985 7.96349 82.9625C11.5883 82.7298 14.4885 85.3525 14.7279 89.0687C14.8276 90.6227 14.2342 91.9872 13.2803 93.0874Z" fill="url(#paint6_linear)"/>
<path d="M11.4869 90.7356C11.324 90.6941 11.1545 90.6691 10.9866 90.6459C10.8503 90.6276 10.7174 90.6093 10.5961 90.5794C10.6492 90.5378 10.7024 90.498 10.7573 90.4581C10.98 90.2885 11.211 90.1174 11.3971 89.883C11.7412 89.4526 11.8608 88.7711 11.4021 88.354C10.9517 87.9468 10.2304 88.0897 9.78167 88.4288C9.63541 88.5401 9.51242 88.6648 9.39775 88.7911C9.39276 88.7113 9.38113 88.6282 9.3562 88.5451C9.26977 88.2476 9.0321 88.0099 8.70303 87.8869C8.31245 87.7407 7.86538 87.7856 7.53796 88C6.99448 88.359 6.78008 89.0936 7.05265 89.8132C7.07758 89.8764 7.11913 89.9811 7.13409 89.9861C7.08589 90.0176 6.90141 90.0127 6.80335 90.011C6.51915 89.9894 6.0488 90.0958 5.77955 90.3733C5.62997 90.5262 5.55684 90.7157 5.56682 90.9184C5.59175 91.4353 6.12691 91.7162 6.61887 91.7212C6.77676 91.7096 6.93133 91.7029 7.08589 91.6863C7.12911 91.6796 7.17065 91.6747 7.21387 91.6697C7.21054 91.673 7.20888 91.6747 7.20556 91.678C7.11581 91.7677 7.02772 91.8558 6.95127 91.9555C6.72025 92.2613 6.61554 92.7167 6.90806 93.0458C7.18395 93.3549 7.65098 93.3466 7.96842 93.1754C8.01163 93.1522 8.05152 93.1272 8.08975 93.1007C8.1662 93.3134 8.29583 93.5211 8.51688 93.6674C8.68474 93.7788 8.88585 93.8336 9.08861 93.8336C9.42766 93.8336 9.77502 93.6857 9.99441 93.4131C10.1756 93.1904 10.262 92.9062 10.2504 92.6203C10.9118 92.8081 11.4886 92.7749 11.9373 92.5106C12.175 92.3694 12.3345 92.1832 12.401 91.9705C12.4658 91.7594 12.4409 91.5434 12.3295 91.3423C12.175 91.063 11.8509 90.8287 11.4869 90.7356ZM11.7661 91.7694C11.7528 91.8242 11.6897 91.8874 11.5999 91.9406C11.1046 92.2331 10.3966 92.0137 9.89136 91.7777C9.72516 91.6979 9.52904 91.7711 9.45259 91.9373C9.40938 92.0303 9.4127 92.1334 9.45259 92.2198C9.45758 92.2613 9.47254 92.3046 9.4958 92.3428C9.62378 92.5572 9.61713 92.8264 9.47918 92.9959C9.34124 93.1671 9.04208 93.2253 8.87754 93.1173C8.70303 93.0009 8.64984 92.735 8.62325 92.371L8.56009 91.4636L8.02659 92.1998C7.89861 92.376 7.79058 92.519 7.6543 92.5904C7.54461 92.6486 7.41996 92.632 7.39503 92.6037C7.3701 92.5755 7.3917 92.4575 7.46982 92.3544C7.52799 92.278 7.59779 92.2115 7.66593 92.1433C7.77064 92.0403 7.8903 91.9206 7.98338 91.776C8.13296 91.5467 8.118 91.2874 7.94681 91.1295C7.83213 91.0265 7.69253 91.0099 7.64931 91.0032C7.41996 90.9783 7.20722 91.0032 6.99947 91.0281C6.87814 91.0448 6.75682 91.0614 6.63549 91.0614C6.40281 91.0614 6.22497 90.9533 6.2499 90.8304C6.34298 90.7323 6.55405 90.6575 6.79504 90.6675C7.05764 90.6758 7.45153 90.6824 7.66926 90.3617C7.86205 90.0741 7.73906 89.76 7.64267 89.5141C7.52633 89.2049 7.57619 88.7628 7.89862 88.5501C8.0482 88.4504 8.27921 88.4354 8.47201 88.5035C8.5335 88.5268 8.67976 88.595 8.71965 88.7279C8.74624 88.8193 8.73627 88.9407 8.72463 89.0703C8.70967 89.2631 8.69139 89.4825 8.77616 89.7102L8.93903 90.1539L9.29803 89.8481C9.4609 89.7102 9.60217 89.5506 9.74178 89.3911C9.88471 89.2282 10.0193 89.0736 10.1772 88.954C10.4082 88.7778 10.7839 88.688 10.955 88.8426C11.103 88.9772 11.0348 89.2764 10.8786 89.4708C10.744 89.6404 10.5578 89.7816 10.3584 89.9296C10.2304 90.0259 10.1008 90.1223 9.98277 90.2287C9.6886 90.4913 9.7584 90.7423 9.80161 90.837C9.87142 90.9899 10.0094 91.0597 10.0542 91.0813C10.3285 91.2209 10.616 91.2592 10.8952 91.299C11.0365 91.319 11.1811 91.3356 11.319 91.3738C11.5018 91.4204 11.6847 91.5417 11.7495 91.6614C11.7794 91.7129 11.7744 91.7445 11.7661 91.7694Z" fill="url(#paint7_linear)"/>
<path d="M37.647 54.7066C37.4492 54.6934 37.2564 54.7066 37.0619 54.7216C36.9107 54.7332 36.7644 54.7432 36.6365 54.7482C36.698 54.6867 36.7678 54.6235 36.8392 54.5604C36.9572 54.454 37.0752 54.346 37.1766 54.228C37.4608 53.8923 37.6237 53.3521 37.3096 52.9532C37.0104 52.576 36.4503 52.561 36.0764 52.7355C35.9833 52.7771 35.8985 52.8302 35.8204 52.8884C35.7506 52.5826 35.6093 52.2735 35.3152 52.0524C34.7999 51.6685 33.9856 51.7649 33.5335 52.2635C33.2726 52.5527 33.1512 52.9416 33.1812 53.3355C32.3202 53.0047 31.564 52.9915 30.9657 53.3056C30.6748 53.4585 30.4721 53.6712 30.379 53.9189C30.2893 54.1582 30.3042 54.4108 30.4206 54.6535C30.5884 55.0008 30.964 55.3033 31.3978 55.4429C31.5989 55.5077 31.8083 55.5493 32.0177 55.5908C32.2737 55.6407 32.518 55.6889 32.7158 55.7554C32.5911 55.8518 32.4598 55.9382 32.3285 56.0263C32.0394 56.2207 31.7385 56.4218 31.4942 56.6994C31.0455 57.203 30.8793 58.0257 31.3779 58.5326C31.8914 59.0561 32.769 58.9265 33.3341 58.5409C33.5933 58.3647 33.8044 58.1503 34.0072 57.9426C33.9889 58.1121 33.9822 58.2949 34.0254 58.4827C34.1086 58.8417 34.3778 59.1426 34.765 59.3104C34.9745 59.4018 35.1988 59.445 35.4199 59.445C35.6875 59.445 35.9501 59.3786 36.1728 59.2489C36.8542 58.85 37.1633 57.9658 36.9074 57.1481L36.8791 57.0634C36.8459 56.9637 36.786 56.7775 36.816 56.7376C36.8642 56.6745 37.1517 56.6944 37.3046 56.706C37.6736 56.7293 38.222 56.6562 38.5644 56.3421C38.7489 56.1725 38.8469 55.9598 38.8486 55.7205C38.8519 55.1155 38.232 54.7482 37.647 54.7066ZM38.1173 55.8568C37.9727 55.9897 37.6503 56.0645 37.3362 56.0462C37.027 56.0246 36.555 55.9864 36.2874 56.3421C36.0514 56.6562 36.1728 57.0252 36.2775 57.3459C36.4154 57.7864 36.309 58.4046 35.8387 58.6805C35.6193 58.8068 35.2936 58.8218 35.0276 58.7054C34.9146 58.6572 34.7185 58.5426 34.6703 58.3332C34.6387 58.1969 34.662 58.0307 34.6853 57.8545C34.7185 57.6168 34.7551 57.3476 34.6703 57.0717L34.5324 56.6196L34.1518 56.9022C33.9307 57.0717 33.7429 57.2645 33.5634 57.4506C33.3656 57.6534 33.1795 57.8445 32.9634 57.9924C32.6211 58.2284 32.0909 58.3132 31.8499 58.0689C31.6255 57.8395 31.7468 57.4074 31.9878 57.1348C32.1773 56.9204 32.4299 56.7509 32.6975 56.5698C32.8687 56.4567 33.0382 56.3404 33.1944 56.2141C33.5401 55.9399 33.4836 55.6623 33.4404 55.5543C33.3756 55.3881 33.236 55.3066 33.1745 55.2684C32.8471 55.0789 32.4881 55.0091 32.1424 54.941C31.9596 54.9061 31.7751 54.8695 31.5989 54.8147C31.343 54.7316 31.102 54.5471 31.0139 54.3643C30.964 54.2596 30.979 54.1914 30.9956 54.1465C31.0305 54.0551 31.1302 53.9621 31.2715 53.8873C31.9579 53.5266 32.8753 53.869 33.5235 54.2197C33.6798 54.3011 33.8842 54.2479 33.9706 54.0867C34.0221 53.9903 34.0221 53.8806 33.9789 53.7892C33.9773 53.7427 33.9656 53.6945 33.9424 53.6496C33.7761 53.3305 33.8077 52.9399 34.0238 52.7023C34.2432 52.4596 34.6803 52.4014 34.9196 52.5776C35.1955 52.7854 35.2238 53.2308 35.2304 53.6313L35.2437 54.5454L35.8171 53.8324C35.9766 53.6347 36.1428 53.4286 36.3539 53.3305C36.5135 53.2557 36.7229 53.2707 36.7927 53.3604C36.8675 53.4568 36.791 53.6629 36.6747 53.7992C36.5933 53.8972 36.4952 53.9803 36.3988 54.0668C36.2559 54.1964 36.1063 54.3294 35.9833 54.5006C35.8055 54.7449 35.8021 55.0224 35.9766 55.2069C36.0913 55.3282 36.2442 55.3565 36.2991 55.3665C36.58 55.418 36.8492 55.3997 37.1085 55.3798C37.273 55.3681 37.4359 55.3548 37.6021 55.3665C37.9046 55.3881 38.1888 55.5576 38.1888 55.7155C38.1871 55.7504 38.1788 55.7969 38.1173 55.8568Z" fill="url(#paint8_linear)"/>
<path d="M35.4364 92.0786C35.3916 92.0437 35.3434 92.0154 35.2968 91.9905C35.483 91.8176 35.6409 91.5966 35.6924 91.3124C35.7938 90.7456 35.3816 90.1589 34.7916 90.0293C34.4874 89.9612 34.1584 90.0177 33.8725 90.1772C33.7778 89.4426 33.4869 88.9025 33.0166 88.6C32.7706 88.4454 32.5229 88.3839 32.2819 88.4155C32.0493 88.4504 31.8498 88.5751 31.7036 88.7762C31.5041 89.0487 31.4194 89.4543 31.4825 89.8332C31.5108 90.006 31.5606 90.1789 31.6122 90.3501C31.6604 90.5179 31.7086 90.6758 31.7285 90.8354C31.6371 90.7938 31.549 90.749 31.4593 90.7041C31.1917 90.5711 30.9158 90.4332 30.6017 90.3667C30.0382 90.2553 29.3236 90.4465 29.1125 91.0564C28.8998 91.678 29.3585 92.2963 29.9003 92.5606C30.0864 92.6536 30.2776 92.7135 30.4654 92.765C30.3706 92.8098 30.2776 92.868 30.1895 92.9412C29.9269 93.1655 29.7956 93.5145 29.8305 93.8935C29.8704 94.319 30.1097 94.7079 30.4537 94.9073C31.0421 95.2497 31.8581 95.1117 32.4448 94.5267C32.5013 94.4702 32.606 94.3622 32.6409 94.3539C32.6908 94.3804 32.7689 94.5583 32.8121 94.658C32.9418 94.9538 33.2143 95.3178 33.5949 95.4541C33.688 95.4873 33.7811 95.5023 33.8741 95.5023C33.9988 95.5023 34.1201 95.4724 34.2331 95.4126C34.7035 95.1649 34.7666 94.53 34.5556 94.058C34.4891 93.9084 34.401 93.7672 34.3129 93.6276C34.273 93.5644 34.2331 93.5029 34.1982 93.4398C34.2348 93.453 34.2714 93.4647 34.3096 93.4763C34.4409 93.5195 34.5739 93.5644 34.7068 93.5877C35.1024 93.6558 35.5794 93.5528 35.7705 93.1423C35.9566 92.7434 35.7373 92.2963 35.4364 92.0786ZM35.1738 92.863C35.1406 92.9312 34.9794 92.9661 34.8281 92.9378C34.7234 92.9179 34.6204 92.8846 34.519 92.8497C34.3644 92.7982 34.2049 92.745 34.0204 92.7234C33.7412 92.6852 33.5185 92.8165 33.442 93.0326C33.3938 93.1672 33.4204 93.2902 33.4454 93.3716C33.5168 93.606 33.6381 93.7954 33.7561 93.9799C33.8276 94.0913 33.8991 94.2043 33.9539 94.3256C34.0437 94.525 34.0287 94.7743 33.9257 94.8275C33.9007 94.8425 33.8725 94.8525 33.8127 94.8308C33.6714 94.781 33.5035 94.5965 33.4104 94.3821C33.3074 94.1461 33.1379 93.7522 32.7307 93.7007C32.7008 93.6957 32.6725 93.694 32.6459 93.694C32.3385 93.694 32.1191 93.9184 31.9296 94.1112C31.6554 94.3821 31.1601 94.555 30.7861 94.3356C30.6249 94.2425 30.5086 94.0447 30.4886 93.832C30.482 93.7539 30.4803 93.5594 30.6183 93.4414C30.7064 93.3666 30.841 93.3151 30.9823 93.2619C31.18 93.1871 31.4027 93.1024 31.5872 92.9245L31.9429 92.5805L31.4875 92.3844C31.2764 92.293 31.0521 92.2348 30.8294 92.1766C30.6 92.1185 30.3839 92.0619 30.1928 91.9689C29.9069 91.8276 29.6543 91.5135 29.7391 91.2692C29.8189 91.0382 30.1795 90.9467 30.467 91.0116C30.6997 91.0598 30.9274 91.1744 31.1667 91.2941C31.3196 91.3706 31.4725 91.447 31.6321 91.5102C32.0061 91.6614 32.2038 91.4869 32.2703 91.4104C32.3867 91.2791 32.395 91.1196 32.3983 91.0731C32.4182 90.744 32.3318 90.4481 32.247 90.1623C32.2055 90.0177 32.1606 89.8731 32.1374 89.7252C32.1041 89.5241 32.1473 89.293 32.2404 89.1634C32.2952 89.0886 32.3484 89.072 32.385 89.067C32.4581 89.057 32.5562 89.087 32.6559 89.1534C33.1711 89.4858 33.2592 90.267 33.2442 90.8653C33.2376 91.0481 33.3805 91.1994 33.5634 91.2044C33.7096 91.216 33.7694 91.1578 33.8309 91.0797C33.8658 91.0581 33.8991 91.0298 33.924 90.9916C34.0969 90.7506 34.3927 90.6243 34.647 90.6742C34.888 90.7274 35.0791 90.9833 35.0409 91.1977C34.9927 91.462 34.6702 91.6614 34.3727 91.8259L33.5417 92.2863L34.4791 92.4409C34.6885 92.4758 34.9046 92.5107 35.0492 92.6137C35.1489 92.6852 35.1988 92.8082 35.1738 92.863Z" fill="url(#paint9_linear)"/>
<defs>
<linearGradient id="paint0_linear" x1="50.2863" y1="0" x2="50.2863" y2="110" gradientUnits="userSpaceOnUse">
<stop stop-color="#8FD400"/>
<stop offset="0.515625" stop-color="#67B437"/>
<stop offset="1" stop-color="#52B039"/>
</linearGradient>
<linearGradient id="paint1_linear" x1="59.8156" y1="76.1252" x2="59.8156" y2="91.0015" gradientUnits="userSpaceOnUse">
<stop stop-color="#8FD400"/>
<stop offset="0.515625" stop-color="#67B437"/>
<stop offset="1" stop-color="#52B039"/>
</linearGradient>
<linearGradient id="paint2_linear" x1="60.033" y1="79.7721" x2="60.033" y2="88.8277" gradientUnits="userSpaceOnUse">
<stop stop-color="#8FD400"/>
<stop offset="0.515625" stop-color="#67B437"/>
<stop offset="1" stop-color="#52B039"/>
</linearGradient>
<linearGradient id="paint3_linear" x1="30.5914" y1="67.0127" x2="30.5914" y2="79.0035" gradientUnits="userSpaceOnUse">
<stop stop-color="#8FD400"/>
<stop offset="0.515625" stop-color="#67B437"/>
<stop offset="1" stop-color="#52B039"/>
</linearGradient>
<linearGradient id="paint4_linear" x1="57.2967" y1="51.6069" x2="57.2967" y2="65.995" gradientUnits="userSpaceOnUse">
<stop stop-color="#8FD400"/>
<stop offset="0.515625" stop-color="#67B437"/>
<stop offset="1" stop-color="#52B039"/>
</linearGradient>
<linearGradient id="paint5_linear" x1="58.3498" y1="53.8961" x2="58.3498" y2="63.3923" gradientUnits="userSpaceOnUse">
<stop stop-color="#8FD400"/>
<stop offset="0.515625" stop-color="#67B437"/>
<stop offset="1" stop-color="#52B039"/>
</linearGradient>
<linearGradient id="paint6_linear" x1="8.20014" y1="81.2898" x2="8.20014" y2="97.4386" gradientUnits="userSpaceOnUse">
<stop stop-color="#8FD400"/>
<stop offset="0.515625" stop-color="#67B437"/>
<stop offset="1" stop-color="#52B039"/>
</linearGradient>
<linearGradient id="paint7_linear" x1="9.00109" y1="87.8018" x2="9.00109" y2="93.8336" gradientUnits="userSpaceOnUse">
<stop stop-color="#8FD400"/>
<stop offset="0.515625" stop-color="#67B437"/>
<stop offset="1" stop-color="#52B039"/>
</linearGradient>
<linearGradient id="paint8_linear" x1="34.5848" y1="51.817" x2="34.5848" y2="59.445" gradientUnits="userSpaceOnUse">
<stop stop-color="#8FD400"/>
<stop offset="0.515625" stop-color="#67B437"/>
<stop offset="1" stop-color="#52B039"/>
</linearGradient>
<linearGradient id="paint9_linear" x1="32.4492" y1="88.4075" x2="32.4492" y2="95.5023" gradientUnits="userSpaceOnUse">
<stop stop-color="#8FD400"/>
<stop offset="0.515625" stop-color="#67B437"/>
<stop offset="1" stop-color="#52B039"/>
</linearGradient>
</defs>
</svg>
