<svg width="78" height="78" viewBox="0 0 78 78" fill="none" xmlns="http://www.w3.org/2000/svg">
<g clip-path="url(#clip0)">
<path d="M76.3392 60.0035C70.6897 48.0363 67.2604 35.9654 66.0477 31.3295C65.8286 30.4916 65.4575 29.6996 64.9628 28.9902L64.9568 26.1914C64.9536 24.801 64.2785 23.4907 63.1509 22.6859C62.5238 22.2384 61.8998 21.7724 61.2956 21.2993C52.8268 8.96189 47.6799 5.81761 47.4643 5.68959C47.4031 5.65334 47.3363 5.62757 47.2665 5.61374C47.0905 5.57771 46.1541 5.47818 44.8696 6.91612C42.2646 9.54142 37.0421 20.6837 36.605 23.4523C36.291 25.4417 33.2242 29.9865 31.9901 31.7165C31.9556 31.7261 31.9222 31.7353 31.8875 31.7452C28.8588 32.5969 25.0252 34.5869 24.1884 37.3916C23.762 38.8205 24.1312 40.2559 25.2855 41.6608C25.3106 43.6508 25.6544 47.8854 26.8068 52.4305C26.6341 52.6866 26.4707 52.93 26.3188 53.157C25.747 54.0112 24.9475 54.7087 24.0059 55.1738C23.0008 55.6706 22.1364 56.248 21.4361 56.8898C20.8998 57.3815 20.0699 58.2764 19.1086 59.3127C18.731 59.7198 18.3279 60.1543 17.9099 60.6C17.1795 60.5956 15.1564 60.6182 13.0119 60.9409C9.29357 61.5003 7.13425 62.6747 6.59369 64.4317C6.08476 66.0852 6.10425 67.3621 6.65172 68.2265C6.67729 68.267 6.70452 68.3034 6.73134 68.3405C4.74425 69.0116 2.61174 69.6039 0.798341 70.0198C0.297587 70.1346 -0.0365989 70.5899 0.00321001 71.102C0.0432285 71.6147 0.44467 72.013 0.957577 72.0486C3.29792 72.2129 6.96244 72.3311 7.05023 72.3311C8.70524 72.3311 10.3389 71.9133 11.7911 71.1162C11.8359 71.0917 11.8832 71.0655 11.9287 71.0404C13.338 71.5426 14.8088 71.8003 16.3075 71.8003C16.3253 71.8003 46.5376 71.6792 46.5376 71.6792C47.1519 71.6767 47.6931 71.3285 47.95 70.7705C47.9541 70.7615 47.9564 70.7521 47.9602 70.7431C59.6812 72.1913 66.7549 72.4038 70.7379 72.4038C71.7327 72.4038 72.5353 72.3903 73.1691 72.3801C73.2412 72.3788 73.311 72.3778 73.378 72.3767C74.0426 72.366 74.698 72.1838 75.2555 71.8217C76.3997 71.0787 77.1951 70.0538 77.6256 68.7638C78.8999 64.9469 76.5282 60.3588 76.3392 60.0035ZM71.7419 52.5762C69.8826 52.3853 67.7842 53.228 66.6048 53.8042C66.3719 50.447 64.8702 43.445 64.7986 43.1125C64.759 42.9284 64.6385 42.7716 64.4709 42.6855L61.4592 41.1411C60.9685 40.8897 60.6448 40.4053 60.6054 39.8419C60.5765 39.4271 60.7297 39.0195 60.9941 38.6986L61.8529 37.6562C62.7926 36.5147 63.0746 34.9959 62.6072 33.5929L62.326 32.75C62.1356 32.1791 62.0878 31.5704 62.1867 30.9767L62.6416 28.2474L63.3491 28.9902C64.0594 29.7359 64.5719 30.6546 64.8315 31.6473C65.7819 35.2806 68.0849 43.4484 71.7419 52.5762ZM25.7745 65.1705C25.0942 64.8304 24.1293 64.5078 22.8975 64.2069C24.1163 63.3227 25.279 62.4142 26.3194 61.5049L30.086 60.7391C30.513 61.4391 30.9633 62.0767 31.4343 62.6449C32.5154 63.9416 34.443 66.0863 35.2597 66.9904C33.0928 66.8179 28.0467 66.3084 25.7745 65.1705ZM29.2351 59.1951C29.3013 59.3273 29.3673 59.46 29.4348 59.5886L28.4901 59.7808C28.7786 59.5888 29.0254 59.3919 29.2351 59.1951ZM32.1299 61.4999C31.3957 60.5516 30.7156 59.4105 30.1015 58.1006C30.2551 57.8211 30.3422 57.5799 30.3902 57.4096C31.3312 56.5696 36.0728 52.304 39.548 48.5764C39.3831 48.9173 39.2496 49.2062 39.1572 49.4378C38.8842 50.12 38.9338 50.856 39.3005 51.5659C39.6624 52.2665 40.3389 52.9439 41.248 53.5555C40.1834 55.1223 36.7022 59.8082 32.1299 61.4999ZM40.4175 50.989C40.2178 50.6021 40.1872 50.2473 40.3246 49.9044C40.483 49.5077 40.8003 48.8729 41.2021 48.0687C41.771 46.9308 42.4787 45.5151 43.1435 43.9619C43.1582 43.9299 43.2194 43.7828 43.2347 43.7419C43.4624 43.2033 43.6984 42.6841 43.9265 42.1818C44.5364 40.8394 45.0892 39.6198 45.3391 38.3876C45.8946 39.1021 46.6396 39.8249 47.6212 40.3676C48.9888 41.1235 50.54 41.371 52.2493 41.1135C51.7576 42.2786 51.2329 44.0876 51.2329 46.5114C51.2329 50.9599 53.7275 55.138 53.8337 55.3138C53.9487 55.504 54.1539 55.6172 54.3713 55.6172C54.4049 55.6172 54.4386 55.6144 54.4723 55.609C54.7256 55.5679 54.9285 55.377 54.9846 55.1267C55.0418 54.8721 56.3853 48.8637 56.2097 46.125C56.0819 44.1419 55.121 41.7555 54.5522 40.4948C56.9204 39.5936 58.5517 38.1368 59.4011 36.1573C60.6126 33.3329 59.87 30.2509 59.3083 29.0158C58.5668 27.3842 54.3068 22.6518 49.1059 21.6618C48.3763 21.5227 47.6227 21.7496 47.0911 22.2681C46.6727 22.6761 46.2453 23.1071 45.7925 23.563C45.0604 24.3007 44.2848 25.0818 43.4721 25.8407L43.4599 25.1775C43.4488 24.6194 43.5381 24.0692 43.7258 23.541C45.5214 18.4576 47.2453 14.625 48.2802 13.3673C52.8096 17.3702 56.2675 21.5243 56.8885 22.2839L57.1154 23.5621C57.2466 24.308 57.6061 24.9772 58.1545 25.4971L61.3239 28.5089L60.9472 30.7697C60.8145 31.5656 60.8786 32.3819 61.1338 33.1473L61.415 33.9904C61.7429 34.9737 61.5418 36.0565 60.8828 36.8567L59.9917 37.9382C59.403 38.6533 59.1998 39.5997 59.4503 40.5019C59.6678 41.2847 60.2333 41.925 60.9564 42.2956L63.6315 43.6673C63.9611 45.2323 65.4923 52.6478 65.3729 54.8034C65.2635 56.7706 65.5801 59.7405 66.7136 62.426L52.0716 59.0481C51.6358 58.0681 50.0908 55.2459 46.4531 54.3667C43.5205 53.6588 41.0948 52.3011 40.4175 50.989ZM37.7876 34.1622C34.1002 34.5666 32.8848 33.8848 32.4884 33.4352C32.3371 33.2636 32.2753 33.0903 32.2518 32.9483C32.7498 32.8083 33.2102 32.6815 33.6395 32.5634C36.7284 31.7129 38.2789 31.2859 40.9274 29.5207C43.0641 28.0966 44.9875 26.1587 46.6847 24.4493C47.1339 23.9967 47.5581 23.5693 47.9694 23.168C48.2068 22.9365 48.5418 22.8349 48.8677 22.8969C53.6726 23.8096 57.5797 28.251 58.1641 29.5366C58.5521 30.3892 59.323 33.1519 58.246 35.6622C57.4999 37.4016 55.9981 38.6724 53.783 39.4392C51.6513 40.1763 49.7893 40.122 48.2479 39.2777C46.6482 38.4012 45.7814 36.9164 45.3942 36.0672C45.3429 35.9547 45.1088 35.3973 45.0269 35.2031C45.0154 35.1757 45.0035 35.1493 44.99 35.1227C44.6068 34.3541 44.0459 33.6965 43.3443 33.2198C42.379 32.5638 41.3846 32.3388 40.3858 32.5527C39.4929 32.7436 38.6238 33.2831 37.7876 34.1622ZM53.5358 41.3067C54.0577 42.506 54.8493 44.5614 54.9551 46.2061C55.064 47.9009 54.5092 51.1173 54.1187 53.1132C53.4128 51.5631 52.4901 49.051 52.4901 46.5116C52.4901 44.0566 53.0654 42.3178 53.5358 41.3067ZM37.8469 23.648C38.2477 21.1101 43.3246 10.2387 45.7718 7.7915C45.7806 7.78291 45.789 7.7739 45.7971 7.76468C46.3878 7.10008 46.7988 6.92032 46.9767 6.8715C47.8959 7.49734 52.8104 11.1424 60.3134 22.0896C60.3494 22.1422 60.3934 22.1891 60.4435 22.2285C61.0865 22.7335 61.7517 23.2317 62.4205 23.709C63.2192 24.2789 63.6973 25.2079 63.6996 26.1939L63.7026 27.5384L63.444 27.2671C63.0973 26.9029 62.5632 26.795 62.0934 27.0106C61.9797 27.0628 61.8795 27.1351 61.7913 27.2193L59.0196 24.5854C58.6678 24.2519 58.4375 23.8228 58.3533 23.3434L58.0977 21.9042C58.0792 21.8009 58.0352 21.7037 57.9697 21.6216C57.9303 21.5723 53.9632 16.6333 48.672 12.0395C48.4526 11.8489 48.131 11.8338 47.8946 12.0027C47.1823 12.5116 45.5392 14.6328 42.5403 23.1211C42.3019 23.7918 42.1883 24.4922 42.2028 25.2018L42.2349 26.9449C41.586 27.4961 40.9172 28.0161 40.2299 28.4741C37.9384 30.0016 36.5721 30.4457 33.9705 31.1671C35.2498 29.2697 37.5278 25.668 37.8469 23.648ZM26.5411 41.4284C26.5411 41.2765 26.4862 41.1298 26.3865 41.0154C25.4139 39.8993 25.0797 38.8008 25.3932 37.7507C25.954 35.8709 28.4762 34.2651 31.0519 33.3334C31.1256 33.6252 31.266 33.9357 31.512 34.2272C32.2497 35.1013 33.6789 35.5407 35.7739 35.5407C36.0718 35.5407 36.3865 35.5296 36.7113 35.5117C36.5774 35.7068 36.4443 35.909 36.3127 36.1227C35.4342 37.5483 34.7573 39.1714 34.3009 40.9471C34.0604 41.8837 33.48 43.6437 32.2969 44.9113C31.2411 46.0427 29.3368 48.7254 27.7628 51.0236C26.926 47.3308 26.5411 43.5678 26.5411 41.4284ZM7.69744 67.5267C7.38295 66.9958 7.41773 66.0278 7.79529 64.8007C8.46617 62.6206 13.6277 61.9849 16.6974 61.8739C16.324 62.26 15.9463 62.6445 15.5685 63.0178C14.6793 62.9213 14.1159 62.875 14.0899 62.8729C13.7448 62.845 13.4406 63.1021 13.4123 63.4484C13.3843 63.7943 13.6418 64.0977 13.9879 64.1258C13.991 64.126 14.1289 64.1373 14.3713 64.1602C13.5336 64.9287 12.7293 65.5933 12.0253 66.0412C11.0636 66.6532 9.64997 67.2824 8.05887 67.8714C7.95809 67.8222 7.81352 67.7231 7.69744 67.5267ZM6.8206 71.0704C5.76419 71.0421 4.25376 70.9889 2.54093 70.89C6.24085 69.9442 10.4904 68.5081 12.7 67.102C14.8926 65.7066 17.8619 62.5052 20.0303 60.1671C20.9727 59.1507 21.7869 58.2733 22.2855 57.8161C22.898 57.2543 23.6644 56.7446 24.5628 56.3004C25.7011 55.7378 26.6695 54.8924 27.3633 53.8557C28.9676 51.4584 31.8611 47.22 33.2152 45.7688C34.5199 44.3711 35.1876 42.5454 35.5178 41.2599C35.9427 39.6062 36.5698 38.0997 37.3821 36.7821C38.4513 35.0479 39.5806 34.0103 40.6484 33.7817C41.3063 33.6418 41.9568 33.797 42.6371 34.2592C43.3925 34.7723 43.9374 35.5689 44.1715 36.5026C44.1895 36.5742 44.2031 36.6312 44.2073 36.6593C44.3386 38.2345 43.6171 39.8226 42.7813 41.6618C42.5477 42.1764 41.9759 43.4934 41.9686 43.5108C40.6903 46.2342 32.528 53.8314 29.4051 56.6027C29.2886 56.706 29.2161 56.8376 29.1989 56.9922C29.1913 57.0427 28.9921 58.2372 27.0398 59.1585C26.9744 59.1893 26.9147 59.2314 26.8636 59.2825C25.2961 60.8497 23.2355 62.4576 21.0592 63.9716C21.032 63.9875 21.0066 64.0053 20.9819 64.025C17.4829 66.4529 13.6971 68.6351 11.1855 70.0133C9.85236 70.7458 8.34361 71.1106 6.8206 71.0704ZM16.3555 70.5426C16.3395 70.5426 16.3236 70.5426 16.3075 70.5426C15.3391 70.5426 14.3837 70.4223 13.4517 70.1893C15.7912 68.8629 18.7275 67.1062 21.5147 65.1839C23.1634 65.5262 24.3937 65.8939 25.1748 66.2769C24.4752 67.1504 23.4017 68.7637 23.3132 70.5145L16.3555 70.5426ZM46.8081 70.2442C46.7835 70.2972 46.7077 70.4209 46.5325 70.4217L24.5722 70.5097C24.6799 68.9299 25.8633 67.3937 26.3986 66.7743C29.9366 67.9615 35.93 68.302 36.2139 68.3175C36.354 68.3259 36.489 68.2871 36.6031 68.2085C37.5361 67.5701 39.1551 66.8483 39.6422 67.2139C39.7321 67.2812 39.8384 67.3235 39.9498 67.3359C40.7739 67.4283 42.3652 67.3042 43.5546 67.184C44.0686 67.1328 44.5714 67.3361 44.9046 67.7289L46.7636 69.9195C46.877 70.0531 46.8324 70.191 46.8081 70.2442ZM76.4335 68.365C76.1391 69.2473 75.6226 69.9744 74.8926 70.5371C74.3978 70.9187 73.7832 71.1125 73.1585 71.1225C73.1553 71.1225 73.1522 71.1225 73.149 71.1227C69.9913 71.1747 62.6227 71.295 47.9564 69.4755C47.8969 69.3448 47.8192 69.2203 47.7222 69.1061L45.8631 66.9156C45.2622 66.2074 44.3537 65.8382 43.4285 65.9335C41.9568 66.0819 40.8334 66.1393 40.2306 66.0991C39.5777 65.7244 38.6485 65.795 37.4643 66.3098C37.1772 66.4347 36.9088 66.5713 36.6769 66.6983C36.6442 66.6566 34.4262 64.2044 32.9759 62.5183C37.7951 60.548 41.2826 55.7751 42.3352 54.1972C43.4224 54.7621 44.7217 55.2421 46.1575 55.5889C49.808 56.471 50.9715 59.6594 51.0184 59.7929C51.0892 59.9976 51.2602 60.1512 51.4709 60.1996L67.4329 63.8821C67.4746 63.9548 67.5131 64.0292 67.5563 64.1009L69.2325 66.8946C69.4321 67.2277 69.8918 67.3088 70.1958 67.0354C70.4219 66.832 70.454 66.4873 70.2974 66.2264L68.6343 63.4541C67.0388 60.795 66.5533 57.435 66.6151 55.2101C67.8607 54.5249 70.5799 53.3606 72.3111 53.9764C73.2027 56.1416 74.1681 58.3493 75.2092 60.5541C75.2139 60.5641 75.2191 60.574 75.2241 60.5838C76.0371 62.0934 77.3359 65.662 76.4335 68.365Z" fill="url(#paint0_linear)"/>
</g>
<defs>
<linearGradient id="paint0_linear" x1="39" y1="5.59729" x2="39" y2="72.4038" gradientUnits="userSpaceOnUse">
<stop stop-color="#8FD400"/>
<stop offset="0.489583" stop-color="#67B437"/>
<stop offset="1" stop-color="#52B039"/>
</linearGradient>
<clipPath id="clip0">
<rect width="78" height="78" fill="white"/>
</clipPath>
</defs>
</svg>
